<svg width="75" height="47" viewBox="0 0 75 47" fill="none" xmlns="http://www.w3.org/2000/svg">
<path d="M22.9384 42.5886C22.81 42.5175 22.7347 42.4271 22.7127 42.3173C22.708 42.2937 22.7072 42.2489 22.7103 42.1829C22.7103 42.142 22.6912 41.7822 22.6531 41.1036C22.6151 40.4249 22.6327 39.9225 22.7061 39.5964C22.7043 39.3025 22.7377 38.8786 22.8062 38.3246C22.8343 38.1797 22.853 38.0491 22.8623 37.9327C22.8638 37.8179 22.9215 37.4542 23.0353 36.8417C23.1148 36.3426 23.1554 36.0766 23.1569 36.0436C23.1522 35.9792 23.2076 35.7263 23.3231 35.2851C23.4465 34.8422 23.5371 34.5411 23.595 34.3818C23.7137 33.9971 23.8278 33.7319 23.9373 33.5862C24.0407 33.5727 24.119 33.5766 24.1722 33.5981C24.2239 33.6118 24.2835 33.6442 24.3508 33.6954C24.426 33.745 24.4871 33.7853 24.5341 33.8163C24.5592 33.86 24.5358 34.008 24.464 34.2602C24.3905 34.5045 24.3109 34.7584 24.2249 35.0217C24.0484 35.5657 23.9499 35.8889 23.9297 35.9913C23.9219 36.0338 23.8743 36.2645 23.7869 36.6835C23.6979 37.0946 23.6449 37.4205 23.6278 37.6612C23.7077 37.6934 23.7868 37.7013 23.8651 37.6848C23.9825 37.6601 24.1344 37.5832 24.3206 37.454C24.5241 37.3295 24.665 37.2589 24.7433 37.2425C24.9468 37.1588 25.0916 37.1078 25.1777 37.0897C25.2951 37.065 25.393 37.0648 25.4713 37.0892C25.5559 37.1041 25.6499 37.1457 25.7533 37.2138C25.8331 37.2052 25.8895 37.1606 25.9223 37.0802C25.9536 36.9918 25.9848 36.8626 26.016 36.6926C26.0565 36.447 26.1026 36.2697 26.1542 36.1607L26.269 35.8177C26.5347 35.0261 26.7465 34.4747 26.9044 34.1635C27.0889 33.7813 27.3933 33.4475 27.8174 33.162C27.8941 33.0968 27.9755 33.0552 28.0616 33.037C28.1634 33.0156 28.2566 33.0328 28.3412 33.0886C28.4242 33.1365 28.49 33.2207 28.5387 33.3413C28.6138 33.35 28.7101 33.3624 28.8276 33.3786C28.9513 33.3852 29.0476 33.3977 29.1165 33.4159C29.1917 33.4246 29.2622 33.4506 29.328 33.494C29.4392 33.5196 29.552 33.594 29.6664 33.7171C29.7886 33.8385 29.8842 33.9696 29.9532 34.1104C30.0222 34.2512 30.0458 34.3484 30.0239 34.4021C30.0349 34.3752 30.0522 34.5433 30.076 34.9061C30.0997 35.269 30.1062 35.5456 30.0953 35.7359C30.116 36.1239 30.0256 36.7724 29.8242 37.6814L29.7493 38.0405C29.6431 38.3653 29.5063 38.7211 29.339 39.1078C29.1718 39.4945 29.0099 39.7861 28.8534 39.9825C28.6 40.3056 28.37 40.5625 28.1634 40.7531C27.9631 40.9343 27.7573 41.0471 27.5459 41.0916C27.3658 41.1295 27.2038 41.135 27.0597 41.1081C26.9234 41.0795 26.7707 41.0299 26.6015 40.9592C26.4214 40.8745 26.2577 40.7291 26.1103 40.5231C25.963 40.317 25.872 40.1277 25.8374 39.9551C25.8233 39.8845 25.8232 39.8232 25.8373 39.7712C25.8263 39.7572 25.8146 39.7188 25.802 39.656C25.7674 39.4835 25.7547 39.1755 25.7637 38.7322C25.7667 38.4618 25.765 38.3109 25.7587 38.2795C25.7962 38.1817 25.8204 38.0581 25.8313 37.9086C25.8421 37.7592 25.8319 37.6673 25.8005 37.6331C25.7269 37.5913 25.6236 37.5845 25.4905 37.6125C25.2869 37.6553 25.0294 37.7749 24.7179 37.9713L24.293 38.2324C24.1412 38.3297 23.9956 38.4176 23.8563 38.496C23.717 38.5743 23.5894 38.6298 23.4735 38.6624C23.4172 38.7478 23.3907 38.8597 23.3939 38.9979C23.3971 39.1362 23.398 39.2219 23.3964 39.2549L23.3733 39.7503C23.3656 39.9154 23.3572 40.1788 23.348 40.5404C23.3373 40.8942 23.3343 41.0624 23.339 41.0451C23.35 41.1 23.3555 41.2092 23.3557 41.3726C23.3621 41.5675 23.3778 41.7072 23.4029 41.7919C23.4249 41.8608 23.4328 41.9613 23.4266 42.0934C23.4236 42.2003 23.4323 42.3048 23.4527 42.4068C23.4763 42.5244 23.4176 42.5981 23.2767 42.6277C23.1593 42.6525 23.0465 42.6394 22.9384 42.5886ZM27.1063 40.5465C27.2785 40.5102 27.4444 40.4426 27.6041 40.3436C27.7622 40.2367 27.8787 40.1264 27.9538 40.0125L28.3269 39.4312C28.5099 39.1638 28.6515 38.9337 28.7516 38.741C28.8501 38.5404 28.9579 38.2438 29.0751 37.8513C29.1845 37.5421 29.2548 37.3025 29.286 37.1325C29.3172 36.9624 29.3397 36.7696 29.3537 36.5542C29.3613 36.3073 29.3878 36.0524 29.433 35.7895C29.4719 35.536 29.4773 35.2978 29.4489 35.0749C29.4268 34.8425 29.3844 34.5694 29.3215 34.2556C29.3057 34.1363 29.2501 34.0417 29.1545 33.9719C29.0668 33.9005 28.9775 33.8825 28.8867 33.9179C28.857 33.9324 28.8045 33.9557 28.7294 33.9878C28.6527 34.0122 28.5861 34.0466 28.5298 34.0912C28.4719 34.1279 28.4281 34.1739 28.3984 34.2292C28.3374 34.3319 28.2654 34.4002 28.1824 34.434C28.1667 34.4373 28.1386 34.4392 28.0978 34.4396C28.0571 34.44 28.0172 34.4239 27.978 34.3912C27.9373 34.3508 27.8816 34.2971 27.8111 34.2302C27.6766 34.3729 27.5874 34.4775 27.5436 34.544C27.5076 34.6088 27.4388 34.754 27.3372 34.9798C27.2184 35.2419 27.1152 35.5211 27.0277 35.8175C26.9465 36.1043 26.8989 36.2738 26.8848 36.3258C26.6692 37.0415 26.5406 37.8043 26.4989 38.6142C26.4804 39.0922 26.4995 39.4725 26.5561 39.7548C26.6456 40.202 26.829 40.4658 27.1063 40.5465ZM31.4256 40.557C31.3598 40.5137 31.2525 40.4463 31.1036 40.355C31.0707 40.2312 31.058 40.0254 31.0656 39.7377C31.0795 39.4404 31.1028 39.2107 31.1356 39.0485L31.3925 36.9712C31.4003 36.9286 31.3924 36.8485 31.3688 36.7309C31.3563 36.709 31.3453 36.6745 31.3359 36.6275C31.3186 36.5412 31.3256 36.4539 31.3568 36.3655C31.3881 36.2772 31.4107 36.207 31.4248 36.155L31.5211 36.147C31.5446 36.1421 31.5759 36.1355 31.615 36.1273C31.6604 36.1095 31.7004 36.1052 31.7348 36.1143C31.8084 36.1152 31.9845 36.0577 32.2632 35.9418C32.5497 35.8243 32.7313 35.7329 32.808 35.6677L33.2283 35.567C33.3223 35.5472 33.3935 35.5363 33.4421 35.5343C33.6299 35.4947 33.8422 35.5768 34.0788 35.7804L33.9615 36.0503C33.3666 36.1755 32.9783 36.294 32.7967 36.4058C32.7388 36.4425 32.6371 36.4844 32.4915 36.5314C32.3459 36.5784 32.2441 36.6202 32.1862 36.657C32.1424 36.7234 32.1088 36.8817 32.0855 37.1318C32.0701 37.3804 32.0608 37.5376 32.0577 37.6037L32.025 37.8681C31.9533 38.3655 31.9167 38.6103 31.9151 38.6024C31.9057 38.5145 31.8822 38.6216 31.8449 38.9237C31.8138 39.2164 31.792 39.454 31.7796 39.6364C31.7642 40.0075 31.7214 40.3027 31.6511 40.5219L31.4256 40.557ZM35.2083 39.6015C35.1144 39.6213 35.0368 39.6212 34.9758 39.6014C34.9147 39.5815 34.8246 39.5392 34.7055 39.4743C34.3922 39.2542 34.2127 39.0303 34.1672 38.8028C34.1562 38.7479 34.1522 38.7079 34.1553 38.6827C34.1678 38.6229 34.1647 38.5663 34.1458 38.513C34.1348 38.4581 34.1277 38.4228 34.1246 38.4072C34.087 38.3824 34.0674 38.366 34.0658 38.3582C34.0627 38.3425 34.0682 38.3291 34.0823 38.318C34.0948 38.299 34.1034 38.2808 34.1081 38.2635C34.155 38.2536 34.162 38.2072 34.1291 38.1242C34.1009 38.0647 34.1047 37.9208 34.1405 37.6926C34.1748 37.4565 34.2326 37.2358 34.3139 37.0307C34.3717 36.8714 34.4616 36.6685 34.5836 36.4222C34.7134 36.1741 34.8338 35.9812 34.9449 35.8434C35.0998 35.6391 35.2437 35.4821 35.3768 35.3723C35.5098 35.2626 35.6624 35.1691 35.8346 35.092C35.9833 35.0199 36.0851 34.978 36.1399 34.9665C36.1947 34.9549 36.2448 34.9607 36.2902 34.9839C36.3419 34.9975 36.41 35.0322 36.4946 35.088C36.7249 35.1376 36.894 35.2287 37.0022 35.3613C37.1166 35.4844 37.2044 35.6989 37.2657 36.0048C37.3679 36.5147 37.2712 37.1113 36.9757 37.7948C36.8475 38.0916 36.7193 38.327 36.591 38.5012C36.4612 38.6675 36.2828 38.8562 36.0559 39.0675C35.915 39.2198 35.7797 39.3382 35.6498 39.4227C35.5261 39.4978 35.379 39.5574 35.2083 39.6015ZM36.0857 38.117C36.2312 37.8657 36.3398 37.6344 36.4117 37.423C36.4914 37.2101 36.5531 36.9477 36.5967 36.6361C36.6092 36.4945 36.5965 36.3296 36.5588 36.1413C36.5117 35.906 36.4536 35.7792 36.3847 35.761C36.2986 35.7383 36.2164 35.7352 36.1381 35.7516C35.9658 35.7879 35.8015 35.9042 35.6451 36.1006C35.4573 36.3445 35.3025 36.6305 35.1806 36.9587C35.0571 37.279 34.9438 37.6707 34.8408 38.1338C34.7955 38.315 34.7886 38.484 34.82 38.6409C34.8436 38.7586 34.8899 38.8469 34.9588 38.906C35.0356 38.9634 35.1249 38.9814 35.2266 38.96C35.485 38.9056 35.7713 38.6246 36.0857 38.117ZM39.0695 36.7901C38.9129 36.823 38.772 36.8322 38.6467 36.8177C38.5371 36.8408 38.4565 36.8455 38.4048 36.8319C38.361 36.8166 38.3171 36.7809 38.2732 36.7247C38.2121 36.664 38.1776 36.614 38.1697 36.5748C38.1603 36.5277 38.1963 36.4834 38.2777 36.4417C38.3575 36.3922 38.5047 36.3326 38.7192 36.263C38.9806 36.1425 39.2185 36.0475 39.433 35.9778C39.6553 35.9065 39.9231 35.8379 40.2362 35.772C40.4397 35.7292 40.5791 35.7121 40.6543 35.7208C40.7279 35.7217 40.8156 35.7522 40.9174 35.8126C41.0302 35.8869 41.0953 35.9672 41.1125 36.0535C41.1267 36.1241 41.1056 36.1817 41.0492 36.2263C41.0007 36.2692 40.924 36.2935 40.8191 36.2992L40.0911 36.5138C40.0441 36.5236 39.9173 36.5626 39.7107 36.6306C39.5103 36.6891 39.2965 36.7423 39.0695 36.7901ZM41.9574 42.0314C41.5894 42.1088 41.2457 42.0422 40.9261 41.8315C40.821 41.6738 40.7528 41.5778 40.7215 41.5435C40.6917 41.5171 40.6016 41.4543 40.4512 41.3551C40.4402 41.3002 40.4441 41.2177 40.4628 41.1075C40.4737 40.9989 40.4995 40.9036 40.5401 40.8214C40.7966 40.3505 41.2089 39.9449 41.7771 39.6046C41.7912 39.5935 41.8194 39.5712 41.8616 39.5378C41.9117 39.5027 41.9603 39.4802 42.0072 39.4703C42.0307 39.4654 42.0471 39.4456 42.0565 39.4109C42.0674 39.3841 42.0792 39.3612 42.0917 39.3422C42.1058 39.3311 42.1308 39.334 42.1669 39.3509C42.1888 39.3381 42.2122 39.3127 42.2373 39.2748C42.2717 39.243 42.314 39.23 42.3641 39.2358C42.3735 39.242 42.4917 39.1804 42.7186 39.0508C42.955 38.9275 43.117 38.8403 43.2047 38.7891C43.1795 38.5819 43.1559 38.4234 43.1339 38.3135C43.0647 37.9684 42.9518 37.751 42.7952 37.6614C42.7012 37.5994 42.6087 37.5044 42.5178 37.3764C42.4331 37.2389 42.3689 37.1421 42.325 37.0859C42.3358 36.9365 42.3984 36.8211 42.5126 36.7398C42.738 36.5616 42.9978 36.2903 43.2919 35.9259C43.5939 35.5599 43.8324 35.1827 44.0075 34.7943C44.0747 34.6412 44.0981 34.5137 44.0777 34.4117C44.0368 34.2077 43.8684 34.1206 43.5725 34.1501C43.2828 34.2111 42.9424 34.4871 42.5513 34.9782C42.4918 35.0071 42.4543 35.0231 42.4386 35.0264C42.3133 35.0528 42.1982 34.9667 42.0931 34.7681C42.0931 34.6863 42.1071 34.6139 42.1353 34.5507C42.1618 34.4797 42.2056 34.3929 42.2666 34.2901L42.3792 34.0579C42.4214 34.0245 42.4801 33.9713 42.5552 33.8983C42.6288 33.8174 42.6898 33.7555 42.7383 33.7126C42.7947 33.668 42.862 33.6375 42.9403 33.621C42.9716 33.6144 43.017 33.5967 43.0765 33.5678C43.1344 33.5311 43.1829 33.5087 43.222 33.5004C43.5931 33.4387 43.9111 33.5189 44.1759 33.7411C44.4125 33.9447 44.5543 34.1642 44.6015 34.3995C44.6549 34.6662 44.5941 35.0551 44.4191 35.5661C44.305 35.8517 43.9428 36.3039 43.3325 36.9229L43.1213 37.1513C43.2388 37.2492 43.3783 37.4364 43.5398 37.7131C43.7091 37.9881 43.8134 38.2237 43.8527 38.4198C43.8621 38.4668 43.8653 38.5234 43.8622 38.5894C43.928 38.5919 44.0282 38.5627 44.1628 38.5016C44.3068 38.4468 44.3984 38.4153 44.4376 38.407C44.4752 38.4318 44.5269 38.4659 44.5927 38.5093C44.6663 38.551 44.7227 38.5882 44.7619 38.6208C44.8026 38.6613 44.8269 38.7011 44.8348 38.7403L44.8418 38.7756C44.8497 38.8149 44.8411 38.8535 44.8161 38.8914C44.7989 38.9277 44.7715 38.9539 44.7339 38.97C44.6964 38.9861 44.6306 39.004 44.5367 39.0238C44.4349 39.0452 44.3261 39.0722 44.2102 39.1048C44.0944 39.1373 43.9934 39.1831 43.9073 39.2421C43.8682 39.3321 43.8323 39.4377 43.7995 39.5591C43.7683 39.6883 43.7464 39.7828 43.7339 39.8427C43.6762 40.1246 43.6051 40.3807 43.5207 40.611C43.4363 40.8413 43.2963 41.0792 43.1008 41.3248C43.0163 41.4325 42.9295 41.5284 42.8403 41.6126C42.7511 41.6968 42.6791 41.7446 42.6243 41.7562C42.3832 41.8968 42.1609 41.9886 41.9574 42.0314ZM41.3322 41.5376C41.3354 41.5533 41.3761 41.5529 41.4544 41.5364C41.5796 41.5101 41.7244 41.4591 41.8888 41.3837C42.0532 41.3082 42.1909 41.222 42.302 41.125C42.5086 40.9344 42.6971 40.6331 42.8675 40.2212C42.9378 40.0429 42.9792 39.883 42.9916 39.7414C42.9634 39.7228 42.9297 39.7176 42.8906 39.7259C42.8358 39.7374 42.7732 39.771 42.7027 39.8267C42.6323 39.8824 42.5862 39.9167 42.5642 39.9294C42.5361 39.9517 42.5001 39.9756 42.4562 40.0012C42.4218 40.033 42.3756 40.0672 42.3177 40.1039C42.1064 40.2302 41.892 40.3816 41.6745 40.5582C41.4663 40.7409 41.3177 40.9153 41.2285 41.0812C41.1707 41.1996 41.0956 41.3135 41.0033 41.4229C41.1208 41.5208 41.2304 41.559 41.3322 41.5376ZM45.6116 37.1544C45.5787 37.1123 45.5301 37.0735 45.4659 37.0379C45.4079 36.9929 45.3773 36.9626 45.3742 36.9469C45.3569 36.8606 45.324 36.798 45.2754 36.7592C45.2566 36.7468 45.2417 36.7132 45.2307 36.6583C45.2056 36.5328 45.2218 36.3086 45.2795 35.9858C45.3435 35.6535 45.438 35.2903 45.563 34.8961C45.6005 34.8392 45.6427 34.7445 45.6896 34.612C45.7443 34.4778 45.7819 34.4004 45.8022 34.3798C45.7959 34.3484 45.8022 34.3185 45.8209 34.29C45.8381 34.2537 45.8624 34.2323 45.8937 34.2257L45.8796 34.1551C45.8654 34.0845 45.9608 33.8886 46.1657 33.5676C46.369 33.2386 46.5427 33.0059 46.6867 32.8693C46.8557 32.6948 47.0419 32.5861 47.2455 32.5433C47.3864 32.5136 47.5156 32.5273 47.6331 32.5843C47.6816 32.6231 47.8955 32.7539 48.2746 32.9766L48.7869 33.2734L48.6934 33.9062C48.6653 34.1328 48.6686 34.3324 48.7032 34.505C48.7629 34.8031 48.9064 35.0712 49.1336 35.3095C49.19 35.3876 49.2848 35.4535 49.418 35.5072C49.5511 35.5609 49.678 35.5833 49.7985 35.5743C49.977 35.5694 50.0804 35.6375 50.1087 35.7787C50.1402 35.9356 50.0886 36.0446 49.9539 36.1056C49.9242 36.12 49.878 36.1339 49.8154 36.147C49.3535 36.2442 48.889 36.0027 48.422 35.4225C48.3812 35.3821 48.3209 35.3048 48.2409 35.1909C48.1688 35.0752 48.1241 34.9947 48.1069 34.9493C48.0725 35.0219 48.0287 35.1088 47.9755 35.2099C47.9224 35.3111 47.8707 35.3996 47.8207 35.4755C47.1387 36.5101 46.5511 37.0793 46.0579 37.1831C45.9013 37.2161 45.7525 37.2065 45.6116 37.1544ZM45.9023 36.4065C45.9102 36.4458 45.9517 36.4493 46.0268 36.4171C46.1098 36.3833 46.2037 36.3227 46.3085 36.2352C46.4212 36.1461 46.53 36.0374 46.6348 35.909C47.1918 35.1869 47.5758 34.5788 47.7868 34.0847L47.9603 33.6068C47.849 33.4585 47.7432 33.3582 47.643 33.3057C47.5412 33.2454 47.455 33.2226 47.3846 33.2375C47.2202 33.2721 47.0035 33.5343 46.7345 34.0242C46.4639 34.5062 46.2396 35.0562 46.0615 35.6741C46.0178 35.8223 45.9826 35.9727 45.9561 36.1254C45.928 36.2703 45.9101 36.364 45.9023 36.4065ZM53.6591 35.4484C53.5213 35.4529 53.3992 35.4132 53.2926 35.3294C53.1845 35.2377 53.1179 35.1291 53.0927 35.0036C53.0849 34.9643 53.0825 34.9117 53.0856 34.8456C53.1182 34.52 53.129 34.2479 53.1179 34.0295C53.1147 33.9321 53.1271 33.811 53.1552 33.6661C53.1832 33.4395 53.2035 33.2553 53.2159 33.1138C53.2283 32.9722 53.2219 32.8386 53.1968 32.7131C53.1591 32.5249 53.0737 32.4039 52.9405 32.3501C52.8262 32.3088 52.7158 32.2871 52.6093 32.285C52.5012 32.275 52.3705 32.2739 52.217 32.2817C52.1043 32.2891 52.0189 32.2907 51.961 32.2865C51.9359 32.2836 51.8968 32.2919 51.8436 32.3112C51.7982 32.329 51.7481 32.3436 51.6933 32.3551C51.6385 32.3667 51.5985 32.371 51.5735 32.3681C51.5549 32.6418 51.5464 32.8234 51.548 32.913C51.5045 33.3472 51.4804 33.5935 51.4757 33.6517C51.4681 33.8985 51.4565 34.1053 51.4409 34.2721C51.4317 34.4294 51.4146 34.6292 51.3897 34.8715C51.3835 34.9219 51.378 34.9966 51.3734 35.0956C51.375 35.1852 51.3626 35.2655 51.336 35.3365C51.3282 35.379 51.3274 35.416 51.3337 35.4473C51.3384 35.4709 51.3424 35.4905 51.3455 35.5062C51.3659 35.6081 51.3363 35.7043 51.2565 35.7947C51.222 35.8265 51.1829 35.8551 51.1391 35.8807C51.1031 35.9046 51.0679 35.9325 51.0334 35.9642C50.952 35.9242 50.8807 35.8738 50.8196 35.8131C50.7585 35.7524 50.7028 35.6987 50.6527 35.652C50.6693 34.8392 50.698 34.3917 50.7386 34.3096C50.7496 34.2827 50.7558 34.1915 50.7572 34.0359C50.7571 33.8315 50.7656 33.6908 50.7828 33.6136C50.7577 33.529 50.7552 33.4354 50.7755 33.3331C50.8021 33.2212 50.8161 33.1488 50.8177 33.1158C50.8348 32.9977 50.8355 32.8177 50.8196 32.5758C50.807 32.4722 50.8014 32.3426 50.8029 32.1869C50.878 32.1139 50.9344 32.0693 50.9719 32.0533C51.0079 32.0293 51.0831 31.9972 51.1974 31.9568L51.2137 31.7939C51.3138 31.6829 51.4774 31.6035 51.7044 31.5557C51.8767 31.5195 52.0426 31.5132 52.2024 31.5368C52.2353 31.538 52.2603 31.5409 52.2776 31.5455C52.2932 31.5422 52.3128 31.5381 52.3363 31.5331C52.4474 31.5179 52.5986 31.5392 52.7896 31.5971C52.987 31.6455 53.1413 31.7029 53.2525 31.7695C53.5862 31.969 53.7963 32.2845 53.8827 32.7159C53.9455 33.0297 53.9412 33.4557 53.8695 33.994C53.8617 34.0365 53.8524 34.1325 53.8415 34.2819C53.8385 34.4297 53.8401 34.5193 53.8464 34.5506C53.8606 34.6212 53.8857 34.6854 53.9217 34.7432C53.9656 34.7994 54.0267 34.8601 54.1051 34.9254C54.1004 34.9836 54.0777 35.0537 54.0371 35.1359C54.0027 35.2085 53.9581 35.2506 53.9033 35.2621C53.8563 35.272 53.8094 35.3023 53.7624 35.3531C53.7233 35.4022 53.6889 35.434 53.6591 35.4484ZM56.5437 34.9394C56.4685 34.9716 56.3997 34.9942 56.337 35.0074C56.2353 35.0288 56.1397 35.0408 56.0505 35.0432C55.9597 35.0378 55.9111 35.0194 55.9048 34.988C55.9001 34.9645 55.893 34.9496 55.8836 34.9434C55.8742 34.9372 55.8578 34.9366 55.8343 34.9416C55.8249 34.9354 55.7975 34.9207 55.7521 34.8976C55.7066 34.8744 55.6542 34.8568 55.5947 34.8448C55.5022 34.7499 55.4434 34.6396 55.4183 34.5141C55.3915 34.3808 55.3851 34.1655 55.399 33.8683C55.3722 33.6123 55.4268 33.2738 55.5627 32.8528C55.6986 32.4318 55.8737 32.023 56.088 31.6264C56.3101 31.2281 56.5213 30.9384 56.7216 30.7573C56.8154 30.6149 56.9524 30.5248 57.1324 30.4869C57.2733 30.4572 57.4135 30.4645 57.5529 30.5088C57.6751 30.5484 57.8098 30.6304 57.9571 30.7548C58.1122 30.8774 58.2407 31.0098 58.3426 31.1519C58.3975 31.2629 58.4359 31.3734 58.4579 31.4832C58.4815 31.6009 58.5028 31.7885 58.5217 32.0461C58.5109 32.1955 58.5102 32.3755 58.5198 32.586C58.5372 32.7949 58.5608 32.9739 58.5906 33.1229C58.597 33.2361 58.6229 33.3246 58.6683 33.3886C58.7122 33.4448 58.7616 33.4671 58.8164 33.4556C58.8555 33.4473 58.8962 33.4265 58.9385 33.3931C59.0089 33.3374 59.0911 33.2996 59.185 33.2799C59.2711 33.2618 59.3463 33.2705 59.4105 33.306C59.4748 33.3415 59.5163 33.4063 59.5352 33.5005C59.5634 33.6417 59.4939 33.8035 59.3264 33.9858C59.1668 34.1666 59.0009 34.2751 58.8287 34.3113C58.7113 34.336 58.5836 34.2689 58.4457 34.1099C58.314 33.9414 58.1722 33.7219 58.0201 33.4515L57.8954 33.1957L57.4871 33.7844L57.2712 34.1118C57.1711 34.2637 57.1156 34.3531 57.1047 34.3799C57.0484 34.5471 56.8614 34.7336 56.5437 34.9394ZM56.4398 34.2378C56.6057 34.0884 56.7981 33.8476 57.0171 33.5154C57.2361 33.1832 57.4105 32.8726 57.5403 32.5837C57.7185 32.2111 57.8075 31.8612 57.8073 31.5343C57.7571 31.4468 57.6874 31.3633 57.5981 31.284C57.5088 31.2047 57.4359 31.1669 57.3796 31.1706C57.223 31.2036 57.0767 31.3284 56.9406 31.545C56.8045 31.7617 56.6512 32.0556 56.4808 32.4266L56.2088 33.0847C56.1744 33.1573 56.126 33.3433 56.0636 33.6425C55.9996 33.934 55.9731 34.1071 55.9841 34.162C56.0187 34.3346 56.0868 34.4102 56.1886 34.3888C56.2669 34.3723 56.3506 34.322 56.4398 34.2378ZM62.7513 28.1516C62.9096 28.3717 63.0163 28.6191 63.0713 28.8936C63.12 29.1368 63.1374 29.3865 63.1235 29.6429C63.1096 29.8992 63.0738 30.2092 63.0161 30.5729L62.9508 31.163C62.9492 31.196 62.9328 31.2567 62.9016 31.345C62.8687 31.4255 62.8609 31.4884 62.8782 31.5339L62.7868 31.8719C62.6541 32.3903 62.5142 32.8122 62.3673 33.1374C62.2266 33.4531 61.9966 33.7304 61.6773 33.9693C61.6084 34.0328 61.5122 34.1021 61.3885 34.1772C61.2711 34.2428 61.1827 34.2696 61.1232 34.2576C61.0903 34.2563 61.0543 34.2598 61.0151 34.2681C60.976 34.2763 60.94 34.2798 60.9071 34.2786C60.4199 34.0868 60.1253 33.736 60.0231 33.2261C59.9571 32.8966 59.9678 32.502 60.0552 32.0422C60.0583 32.017 60.0716 31.9406 60.095 31.8131C60.1184 31.6855 60.148 31.5689 60.184 31.4633C60.2199 31.3576 60.2629 31.2668 60.313 31.1909C60.3567 31.0018 60.4779 30.7719 60.6765 30.5012C60.8831 30.2289 61.0755 30.0289 61.2539 29.9015C61.3103 29.8569 61.3784 29.8099 61.4582 29.7604C61.5443 29.7014 61.6116 29.6504 61.6601 29.6075C61.8402 29.5696 61.978 29.5652 62.0735 29.5941C62.169 29.623 62.2505 29.704 62.318 29.8369C62.3164 29.7882 62.3162 29.6248 62.3176 29.3465C62.319 29.0683 62.2985 28.8846 62.2561 28.7954C62.242 28.7657 62.2185 28.7297 62.1856 28.6876C62.1511 28.6377 62.1495 28.5889 62.1808 28.5415C62.1416 28.5089 62.0444 28.3495 61.8892 28.0633C61.7606 27.8288 61.582 27.6702 61.3533 27.5875C61.1246 27.5048 60.8772 27.4915 60.611 27.5475C60.4545 27.5805 60.2987 27.6378 60.1437 27.7195C60.1077 27.7434 60.0631 27.765 60.0099 27.7844C59.9566 27.8038 59.9112 27.8215 59.8737 27.8376C59.7139 27.814 59.5815 27.7029 59.4765 27.5043C59.4404 27.3647 59.4677 27.2568 59.5585 27.1805C59.6477 27.0963 59.7791 27.0196 59.9529 26.9503C60.075 26.9083 60.1603 26.8658 60.2088 26.8229C60.3075 26.8266 60.4038 26.8186 60.4977 26.7989C60.6731 26.7783 60.8039 26.7794 60.89 26.8021C61.0498 26.8257 61.1422 26.839 61.1672 26.8419C61.3097 26.8609 61.4248 26.8858 61.5125 26.9163C61.6081 26.9453 61.7013 27.0033 61.7922 27.0905C61.8439 27.145 61.9309 27.2125 62.0531 27.2931C62.1847 27.3798 62.2826 27.4614 62.3469 27.5378C62.3688 27.5659 62.4393 27.6532 62.5584 27.7998C62.676 27.9386 62.7403 28.0559 62.7513 28.1516ZM61.6602 33.09C61.873 32.7673 62.0371 32.3036 62.1525 31.6989C62.2742 31.0846 62.3153 30.5569 62.2759 30.1156L62.0411 30.2876C61.6263 30.5384 61.3188 30.8361 61.1186 31.1807C60.9263 31.5237 60.7629 31.9709 60.6287 32.5223C60.6021 32.6342 60.592 32.7671 60.5984 32.9211C60.6126 33.0734 60.619 33.1865 60.6174 33.2604L60.6269 33.3075C60.6489 33.4173 60.7037 33.5079 60.7915 33.5794C60.8495 33.6244 60.9215 33.6379 61.0076 33.6198C61.1016 33.6 61.2025 33.5542 61.3105 33.4824C61.4169 33.4028 61.485 33.3353 61.5147 33.28C61.5804 33.2008 61.6289 33.1375 61.6602 33.09Z" fill="#FFFBFB"/>
<path d="M15 43.539C15 43.5817 14.9733 43.603 14.92 43.603L3.944 43.587C3.89067 43.587 3.864 43.5604 3.864 43.507L3.864 41.731C3.864 41.6777 3.89067 41.651 3.944 41.651L13.032 41.667V38.371C13.032 38.3177 13.0587 38.291 13.112 38.291H14.92C14.9733 38.291 15 38.3177 15 38.371V43.539ZM15.16 34.5024C15.16 35.0784 15.016 35.6064 14.728 36.0864C14.4293 36.5558 14.04 36.9344 13.56 37.2224C13.0693 37.5104 12.5307 37.6544 11.944 37.6544L6.872 37.6384C6.28533 37.6384 5.752 37.4998 5.272 37.2224C4.792 36.9344 4.408 36.5504 4.12 36.0704C3.832 35.5904 3.688 35.0678 3.688 34.5024C3.688 33.9264 3.832 33.4038 4.12 32.9344C4.408 32.4651 4.792 32.0918 5.272 31.8144C5.752 31.5264 6.28533 31.3824 6.872 31.3824L11.944 31.3664C12.5307 31.3664 13.0693 31.5104 13.56 31.7984C14.04 32.0757 14.4293 32.4544 14.728 32.9344C15.016 33.4038 15.16 33.9264 15.16 34.5024ZM13.224 34.5024C13.224 34.1824 13.096 33.9051 12.84 33.6704C12.5733 33.4251 12.2747 33.3024 11.944 33.3024L6.872 33.3184C6.52 33.3184 6.22133 33.4304 5.976 33.6544C5.73067 33.8784 5.608 34.1611 5.608 34.5024C5.608 34.8331 5.73067 35.1158 5.976 35.3504C6.21067 35.5851 6.50933 35.7024 6.872 35.7024H11.944C12.296 35.7024 12.6 35.5851 12.856 35.3504C13.1013 35.1158 13.224 34.8331 13.224 34.5024ZM15 30.0059C15 30.0913 14.9627 30.1339 14.888 30.1339L3.992 30.1499C3.90667 30.1499 3.864 30.1073 3.864 30.0219V28.5819L10.168 25.8779L3.992 25.9579C3.90667 25.9579 3.864 25.9099 3.864 25.8139V24.2299C3.864 24.1659 3.90667 24.1339 3.992 24.1339L14.904 24.1179C14.968 24.1179 15 24.1446 15 24.1979V25.6059L9.112 28.3739L14.872 28.2619C14.9573 28.2619 15 28.3099 15 28.4059V30.0059ZM15 22.648C15 22.7014 14.9733 22.728 14.92 22.728L3.928 22.696C3.88533 22.696 3.864 22.6747 3.864 22.632L3.848 19.64C3.83733 19.0534 3.976 18.52 4.264 18.04C4.552 17.5494 4.94133 17.16 5.432 16.872C5.912 16.584 6.44533 16.44 7.032 16.44H11.624C12.2427 16.44 12.808 16.5894 13.32 16.888C13.8213 17.1867 14.2213 17.5867 14.52 18.088C14.8187 18.5894 14.9733 19.1547 14.984 19.784L15 22.648ZM13.032 20.776V19.784C13.032 19.3894 12.8933 19.0587 12.616 18.792C12.3387 18.5147 12.008 18.376 11.624 18.376H7.016C6.67467 18.376 6.38133 18.504 6.136 18.76C5.88 19.0054 5.75733 19.2987 5.768 19.64L5.784 20.76L13.032 20.776ZM15.16 12.6118C15.16 13.1878 15.016 13.7158 14.728 14.1958C14.4293 14.6651 14.04 15.0438 13.56 15.3318C13.0693 15.6198 12.5307 15.7638 11.944 15.7638L6.872 15.7478C6.28533 15.7478 5.752 15.6091 5.272 15.3318C4.792 15.0438 4.408 14.6598 4.12 14.1798C3.832 13.6998 3.688 13.1771 3.688 12.6118C3.688 12.0358 3.832 11.5131 4.12 11.0438C4.408 10.5745 4.792 10.2011 5.272 9.92379C5.752 9.63579 6.28533 9.49179 6.872 9.49179L11.944 9.47579C12.5307 9.47579 13.0693 9.61979 13.56 9.90779C14.04 10.1851 14.4293 10.5638 14.728 11.0438C15.016 11.5131 15.16 12.0358 15.16 12.6118ZM13.224 12.6118C13.224 12.2918 13.096 12.0145 12.84 11.7798C12.5733 11.5345 12.2747 11.4118 11.944 11.4118L6.872 11.4278C6.52 11.4278 6.22133 11.5398 5.976 11.7638C5.73067 11.9878 5.608 12.2705 5.608 12.6118C5.608 12.9425 5.73067 13.2251 5.976 13.4598C6.21067 13.6945 6.50933 13.8118 6.872 13.8118H11.944C12.296 13.8118 12.6 13.6945 12.856 13.4598C13.1013 13.2251 13.224 12.9425 13.224 12.6118ZM15 8.11529C15 8.20063 14.9627 8.24329 14.888 8.24329L3.992 8.25929C3.90667 8.25929 3.864 8.21663 3.864 8.13129V6.69129L10.168 3.98729L3.992 4.06729C3.90667 4.06729 3.864 4.01929 3.864 3.92329V2.33929C3.864 2.27529 3.90667 2.24329 3.992 2.24329L14.904 2.22729C14.968 2.22729 15 2.25396 15 2.30729V3.71529L9.112 6.48329L14.872 6.37129C14.9573 6.37129 15 6.41929 15 6.51529L15 8.11529Z" fill="#FFFBFB"/>
<path d="M22.2656 13.9531C21.474 13.9531 20.776 13.7865 20.1719 13.4531C19.5677 13.1198 19.0573 12.6719 18.6406 12.1094C18.2448 11.5573 17.9479 10.9219 17.75 10.2031C17.5521 9.47396 17.4531 8.68229 17.4531 7.82812C17.4531 7.03646 17.5521 6.28646 17.75 5.57812C17.9479 4.85938 18.2396 4.21354 18.625 3.64062C19.0521 3.07812 19.5677 2.61979 20.1719 2.26562C20.776 1.91146 21.474 1.73438 22.2656 1.73438C23.0573 1.73438 23.75 1.90104 24.3438 2.23438C24.9479 2.56771 25.4583 3.01562 25.875 3.57812C26.2604 4.13021 26.5573 4.76562 26.7656 5.48438C26.974 6.20312 27.0781 6.97917 27.0781 7.8125C27.0781 8.625 26.9844 9.38542 26.7969 10.0938C26.6198 10.8021 26.3385 11.4531 25.9531 12.0469C25.5573 12.6198 25.0521 13.0833 24.4375 13.4375C23.8229 13.7812 23.099 13.9531 22.2656 13.9531ZM19.2656 7.8125C19.2656 8.4375 19.3333 9.02083 19.4688 9.5625C19.6042 10.0938 19.8021 10.5781 20.0625 11.0156C20.3021 11.4219 20.6042 11.7448 20.9688 11.9844C21.3333 12.2135 21.7656 12.3281 22.2656 12.3281C22.7552 12.3281 23.1823 12.2188 23.5469 12C23.9115 11.7708 24.2188 11.4583 24.4688 11.0625C24.7188 10.6562 24.9062 10.1823 25.0312 9.64062C25.1667 9.08854 25.2344 8.47396 25.2344 7.79688C25.2344 7.19271 25.1667 6.61458 25.0312 6.0625C24.9062 5.51042 24.7135 5.04167 24.4531 4.65625C24.2031 4.25 23.8958 3.93229 23.5312 3.70312C23.1667 3.47396 22.7396 3.35938 22.25 3.35938C21.8021 3.36979 21.3958 3.48438 21.0312 3.70312C20.6771 3.92188 20.3698 4.22917 20.1094 4.625C19.849 5 19.6406 5.46354 19.4844 6.01562C19.3385 6.56771 19.2656 7.16667 19.2656 7.8125ZM29.9062 6.84375V13.7656H28.2812V5.29688H34.2031V13.7656H32.5781V6.84375H29.9062ZM39.9062 13.7656V13.0781C39.5833 13.4115 39.4688 13.5573 39.5625 13.5156C39.5833 13.5052 39.6198 13.4792 39.6719 13.4375C39.6302 13.4583 39.5938 13.4844 39.5625 13.5156C39.3438 13.6302 39.1094 13.724 38.8594 13.7969C38.5365 13.901 38.1719 13.9531 37.7656 13.9531C37.4948 13.9531 37.224 13.901 36.9531 13.7969C36.6927 13.6823 36.4479 13.526 36.2188 13.3281C36.0208 13.099 35.8594 12.8438 35.7344 12.5625C35.6094 12.2708 35.5469 11.9427 35.5469 11.5781C35.5469 10.9323 35.7188 10.3698 36.0625 9.89062C36.4167 9.40104 36.849 9.06771 37.3594 8.89062C37.6615 8.79688 37.9583 8.72917 38.25 8.6875C38.5521 8.64583 38.8438 8.61979 39.125 8.60938C39.4479 8.58854 39.7083 8.61458 39.9062 8.6875V8.09375C39.9062 8.02083 39.8906 7.89062 39.8594 7.70312C39.8385 7.50521 39.7917 7.32812 39.7188 7.17188C39.6354 7.03646 39.5156 6.91667 39.3594 6.8125C39.2135 6.70833 39 6.65625 38.7188 6.65625C38.3542 6.65625 38.0781 6.73958 37.8906 6.90625C37.7031 7.07292 37.6094 7.41146 37.6094 7.92188H35.7188C35.7188 7.41146 35.7812 7.01042 35.9062 6.71875C36.0312 6.41667 36.2188 6.14583 36.4688 5.90625C36.7396 5.66667 37.0573 5.47396 37.4219 5.32812C37.7865 5.17188 38.2188 5.09375 38.7188 5.09375C39.7188 5.09375 40.4531 5.38021 40.9219 5.95312C41.3906 6.52604 41.625 7.21354 41.625 8.01562V13.7656H39.9062ZM39.9062 10.5625V10.0312C39.875 10.0208 39.7083 10.0208 39.4062 10.0312C39.1146 10.0312 38.8125 10.0729 38.5 10.1562C38.375 10.1979 38.2344 10.25 38.0781 10.3125C37.9323 10.375 37.8021 10.4583 37.6875 10.5625C37.5938 10.6667 37.5104 10.7917 37.4375 10.9375C37.375 11.0729 37.3438 11.2344 37.3438 11.4219C37.3438 11.8281 37.4323 12.0938 37.6094 12.2188C37.7969 12.3333 38.0312 12.3906 38.3125 12.3906C38.5417 12.3906 38.8073 12.2865 39.1094 12.0781C39.474 11.8385 39.6979 11.5885 39.7812 11.3281C39.8646 10.974 39.9062 10.7188 39.9062 10.5625ZM49.375 12.0156V13.5625C48.9583 13.7083 48.5833 13.8125 48.25 13.875C47.9271 13.9271 47.5885 13.9531 47.2344 13.9531C46.5885 13.9531 45.9688 13.8594 45.375 13.6719C44.7917 13.474 44.3125 13.1719 43.9375 12.7656C43.625 12.3906 43.3542 11.9115 43.125 11.3281C42.9062 10.7448 42.7969 10.0885 42.7969 9.35938C42.7969 8.13021 43.1198 7.11458 43.7656 6.3125C44.4219 5.5 45.3385 5.09375 46.5156 5.09375C46.9948 5.09375 47.4531 5.16667 47.8906 5.3125C48.3281 5.45833 48.7031 5.71875 49.0156 6.09375C49.2031 6.33333 49.349 6.60938 49.4531 6.92188C49.5573 7.23438 49.6094 7.6875 49.6094 8.28125H47.7969C47.7969 7.90625 47.776 7.63021 47.7344 7.45312C47.7031 7.27604 47.651 7.13542 47.5781 7.03125C47.526 6.94792 47.3854 6.86458 47.1562 6.78125C46.9271 6.69792 46.6979 6.65625 46.4688 6.65625C45.9375 6.65625 45.4844 6.86979 45.1094 7.29688C44.7448 7.71354 44.5625 8.31771 44.5625 9.10938C44.5625 9.36979 44.5781 9.64062 44.6094 9.92188C44.6406 10.1927 44.7083 10.4583 44.8125 10.7188C44.8958 10.9896 45.026 11.2448 45.2031 11.4844C45.3802 11.7135 45.6146 11.9219 45.9062 12.1094C46.0625 12.1823 46.3073 12.25 46.6406 12.3125C46.974 12.3646 47.276 12.3906 47.5469 12.3906C47.6615 12.3906 47.849 12.375 48.1094 12.3438C48.3698 12.3125 48.7917 12.2031 49.375 12.0156ZM50.5938 13.7656V5.29688H52.2188V8.60938H54.8906V5.29688H56.5156V13.7656H54.8906V10.1562H52.2188V13.7656H50.5938ZM64.3125 13.7656V5.29688H66.0156V13.7656H64.3125ZM59.6094 8.54688H61.0156C61.8698 8.54688 62.599 8.77083 63.2031 9.21875C63.8073 9.66667 64.1094 10.3229 64.1094 11.1875C64.1094 11.8542 63.901 12.4062 63.4844 12.8438C63.0781 13.2708 62.6198 13.5417 62.1094 13.6562C61.7344 13.7292 61.3958 13.7656 61.0938 13.7656H57.9844V5.29688H59.6094V8.54688ZM59.6094 10.0938V12.2188H61.0469C61.474 12.2188 61.8177 12.1354 62.0781 11.9688C62.3385 11.8021 62.4688 11.5312 62.4688 11.1562C62.4688 10.9479 62.4219 10.776 62.3281 10.6406C62.2448 10.5052 62.1562 10.401 62.0625 10.3281C61.9375 10.2552 61.7865 10.1979 61.6094 10.1562C61.4427 10.1146 61.2812 10.0938 61.125 10.0938H59.6094ZM73.7188 12.0156V13.5625C73.3021 13.7083 72.9271 13.8125 72.5938 13.875C72.2708 13.9271 71.9323 13.9531 71.5781 13.9531C70.9323 13.9531 70.3125 13.8594 69.7188 13.6719C69.1354 13.474 68.6562 13.1719 68.2812 12.7656C67.9688 12.3906 67.6979 11.9115 67.4688 11.3281C67.25 10.7448 67.1406 10.0885 67.1406 9.35938C67.1406 8.13021 67.4635 7.11458 68.1094 6.3125C68.7656 5.5 69.6823 5.09375 70.8594 5.09375C71.3906 5.09375 71.875 5.22396 72.3125 5.48438C72.7604 5.73438 73.1198 6.08854 73.3906 6.54688C73.6094 6.92188 73.7552 7.33854 73.8281 7.79688C73.9115 8.25521 73.9531 8.76562 73.9531 9.32812V9.95312H68.9219C68.9531 10.2344 69.0625 10.5938 69.25 11.0312C69.4375 11.4583 69.7708 11.8177 70.25 12.1094C70.4062 12.1823 70.651 12.25 70.9844 12.3125C71.3177 12.3646 71.6198 12.3906 71.8906 12.3906C72.0052 12.3906 72.1927 12.375 72.4531 12.3438C72.7135 12.3125 73.1354 12.2031 73.7188 12.0156ZM71.9219 7.34375C71.7656 7.11458 71.599 6.94271 71.4219 6.82812C71.2552 6.71354 71.0469 6.65625 70.7969 6.65625C70.2969 6.65625 69.8698 6.83854 69.5156 7.20312C69.1719 7.55729 68.9792 7.95833 68.9375 8.40625H72.1406C72.1406 8.38542 72.125 8.25 72.0938 8C72.0729 7.73958 72.0156 7.52083 71.9219 7.34375ZM25.5312 26.9219V29.125C25.1354 29.3958 24.6719 29.6042 24.1406 29.75C23.6094 29.8854 22.974 29.9531 22.2344 29.9531C21.5573 29.9531 20.8646 29.7604 20.1562 29.375C19.4583 28.9896 18.9115 28.4896 18.5156 27.875C18.1198 27.2604 17.8333 26.5938 17.6562 25.875C17.4792 25.1458 17.3906 24.401 17.3906 23.6406C17.3906 22.8802 17.4792 22.1562 17.6562 21.4688C17.8438 20.7812 18.1458 20.1615 18.5625 19.6094C18.9583 19.0573 19.4583 18.6094 20.0625 18.2656C20.6771 17.9115 21.3906 17.7344 22.2031 17.7344C22.9427 17.7344 23.625 17.9219 24.25 18.2969C24.875 18.6719 25.3385 19.2031 25.6406 19.8906C25.7448 20.1198 25.8125 20.3698 25.8438 20.6406C25.875 20.9115 25.8958 21.2396 25.9062 21.625H24.0625C24.0625 21.1562 24.0208 20.8125 23.9375 20.5938C23.8646 20.3646 23.7604 20.151 23.625 19.9531C23.4792 19.776 23.2656 19.6406 22.9844 19.5469C22.7135 19.4427 22.4531 19.3906 22.2031 19.3906C21.7969 19.3906 21.4115 19.4792 21.0469 19.6562C20.6927 19.8333 20.3854 20.1094 20.125 20.4844C19.8333 20.8594 19.6094 21.3125 19.4531 21.8438C19.2969 22.375 19.2188 22.9896 19.2188 23.6875C19.2188 24.0833 19.2656 24.5417 19.3594 25.0625C19.4531 25.5729 19.6094 26.0729 19.8281 26.5625C20.0885 27.0417 20.4635 27.4531 20.9531 27.7969C21.4531 28.1302 21.9635 28.2969 22.4844 28.2969C23.0781 28.2969 23.6042 28.1979 24.0625 28C24.5208 27.7917 25.0104 27.4323 25.5312 26.9219ZM27.2812 29.7656V21.2969H29.9531C30.8906 21.2969 31.6198 21.4948 32.1406 21.8906C32.6615 22.2865 32.9219 22.8542 32.9219 23.5938C32.9219 24.0417 32.8177 24.4062 32.6094 24.6875C32.401 24.9688 32.2031 25.1667 32.0156 25.2812C32.0365 25.2917 32.0781 25.3073 32.1406 25.3281C32.2656 25.3906 32.401 25.4688 32.5469 25.5625C32.776 25.7188 32.9427 25.9427 33.0469 26.2344C33.1615 26.526 33.2188 26.8594 33.2188 27.2344C33.2188 27.6406 33.1302 28.0156 32.9531 28.3594C32.7865 28.7031 32.5573 28.9792 32.2656 29.1875C31.974 29.4062 31.625 29.5573 31.2188 29.6406C30.8125 29.724 30.4844 29.7656 30.2344 29.7656H27.2812ZM28.9531 22.8438V24.6094H29.9375C30.3125 24.6094 30.625 24.5417 30.875 24.4062C31.1354 24.2604 31.2656 24.0052 31.2656 23.6406C31.2656 23.3385 31.1406 23.1302 30.8906 23.0156C30.6406 22.901 30.3542 22.8438 30.0312 22.8438H28.9531ZM28.9531 26.1406V28.2188H30.1562C30.5938 28.2188 30.9323 28.1406 31.1719 27.9844C31.4115 27.8281 31.5312 27.5781 31.5312 27.2344C31.5312 26.8281 31.4062 26.5469 31.1562 26.3906C30.9167 26.224 30.599 26.1406 30.2031 26.1406H28.9531ZM38.4844 24.9219V26.5H38.2656C37.5052 26.5 37 26.6094 36.75 26.8281C36.5 27.0469 36.3385 27.4115 36.2656 27.9219L35.9531 29.7656H34.1875L34.6094 27.4844C34.6823 26.9844 34.849 26.5938 35.1094 26.3125C35.3698 26.0208 35.474 25.901 35.4219 25.9531C35.349 25.9115 35.1562 25.6979 34.8438 25.3125C34.5417 24.9271 34.3906 24.4167 34.3906 23.7812C34.3906 23.3021 34.4792 22.8958 34.6562 22.5625C34.8333 22.2188 35.0833 21.9531 35.4062 21.7656C35.7083 21.5781 36.0417 21.4531 36.4062 21.3906C36.7708 21.3281 37.1562 21.2969 37.5625 21.2969H40.2656V29.7656H38.625V22.8438H37.4688C37.3125 22.8438 37.1354 22.8594 36.9375 22.8906C36.75 22.9115 36.6042 22.9531 36.5 23.0156C36.375 23.0677 36.276 23.1562 36.2031 23.2812C36.1302 23.4062 36.0938 23.5729 36.0938 23.7812C36.0938 24.0521 36.1354 24.2604 36.2188 24.4062C36.3021 24.5521 36.3958 24.6615 36.5 24.7344C36.6354 24.7969 36.7917 24.8438 36.9688 24.875C37.1458 24.9062 37.3698 24.9219 37.6406 24.9219H38.4844ZM43.2031 23.6094H41.5C41.5 22.8385 41.7552 22.2292 42.2656 21.7812C42.776 21.3229 43.4844 21.0938 44.3906 21.0938C44.7344 21.0938 45.0781 21.151 45.4219 21.2656C45.7656 21.3698 46.0781 21.5208 46.3594 21.7188C46.6302 21.9062 46.8542 22.1562 47.0312 22.4688C47.2083 22.7812 47.2969 23.1198 47.2969 23.4844C47.2969 23.8177 47.2344 24.1146 47.1094 24.375C46.9948 24.6354 46.849 24.849 46.6719 25.0156C46.5469 25.1094 46.4375 25.1823 46.3438 25.2344C46.25 25.2969 46.2344 25.3125 46.2969 25.2812L46.4219 25.3438C46.5156 25.3958 46.6094 25.4583 46.7031 25.5312C46.9115 25.7083 47.0833 25.9479 47.2188 26.25C47.3542 26.5417 47.4219 26.8958 47.4219 27.3125C47.4219 27.6458 47.3438 27.9844 47.1875 28.3281C47.0417 28.6615 46.8281 28.9479 46.5469 29.1875C46.276 29.4167 45.9531 29.6042 45.5781 29.75C45.2135 29.8854 44.8177 29.9531 44.3906 29.9531C43.5573 29.9531 42.8438 29.7604 42.25 29.375C41.6667 28.9792 41.375 28.3229 41.375 27.4062H43.1719C43.1719 27.7708 43.2708 28.026 43.4688 28.1719C43.6667 28.3177 43.9635 28.3906 44.3594 28.3906C44.7552 28.3906 45.0729 28.2917 45.3125 28.0938C45.5625 27.8854 45.6875 27.599 45.6875 27.2344C45.6875 26.8594 45.5521 26.5729 45.2812 26.375C45.0104 26.1667 44.6458 26.0625 44.1875 26.0625H43.3594V24.5156H44.1875C44.7188 24.5156 45.0885 24.4375 45.2969 24.2812C45.5052 24.1146 45.6094 23.8698 45.6094 23.5469C45.6094 23.2865 45.5 23.0729 45.2812 22.9062C45.0625 22.7396 44.7812 22.6562 44.4375 22.6562C44.0521 22.6562 43.75 22.7135 43.5312 22.8281C43.3125 22.9427 43.2031 23.2031 43.2031 23.6094ZM54.4375 21.2969V29.7656H52.8125V24.5312L50.2812 29.7656H48.5156V21.2969H50.1406V26.4844L52.6562 21.2969H54.4375Z" fill="#FFFBFB"/>
</svg>
