<svg width="87" height="47" viewBox="0 0 87 47" fill="none" xmlns="http://www.w3.org/2000/svg">
<path d="M35.3664 44.3313C35.2375 44.2595 35.1619 44.1688 35.1396 44.0591C35.1348 44.0355 35.1338 43.9908 35.1368 43.9249C35.1366 43.8841 35.1165 43.5249 35.0766 42.8473C35.0366 42.1696 35.0529 41.6683 35.1255 41.3433C35.1229 41.0499 35.1552 40.6269 35.2223 40.0744C35.25 39.93 35.2684 39.7997 35.2774 39.6836C35.2786 39.5691 35.3354 39.2064 35.4478 38.5957C35.5261 38.0981 35.566 37.8328 35.5675 37.7999C35.5625 37.7356 35.6174 37.4836 35.7319 37.0439C35.8544 36.6026 35.9443 36.3026 36.0018 36.1439C36.1197 35.7607 36.2334 35.4967 36.3427 35.352C36.4462 35.3391 36.5247 35.3435 36.5781 35.3653C36.6299 35.3792 36.6896 35.412 36.7573 35.4635C36.8328 35.5135 36.8941 35.5541 36.9413 35.5853C36.9665 35.6291 36.9435 35.7767 36.8722 36.028C36.7993 36.2714 36.7202 36.5243 36.6348 36.7866C36.4593 37.3285 36.3616 37.6504 36.3416 37.7525C36.3339 37.7949 36.2868 38.0249 36.2004 38.4425C36.1124 38.8523 36.0602 39.1773 36.0437 39.4174C36.1239 39.45 36.2031 39.4584 36.2815 39.4424C36.3991 39.4185 36.551 39.3427 36.7373 39.2149C36.9408 39.0919 37.0818 39.0223 37.1602 39.0064C37.3639 38.9241 37.5088 38.8742 37.595 38.8566C37.7126 38.8327 37.8107 38.8331 37.8892 38.8579C37.974 38.8733 38.0683 38.9154 38.1721 38.9841C38.2521 38.9759 38.3084 38.9318 38.3411 38.8517C38.3721 38.7637 38.4031 38.6349 38.4339 38.4654C38.4738 38.2205 38.5195 38.0438 38.5709 37.9354L38.685 37.5938C38.949 36.8053 39.1597 36.2562 39.3171 35.9466C39.5009 35.5662 39.8049 35.2349 40.2291 34.9526C40.3058 34.888 40.3872 34.847 40.4735 34.8294C40.5754 34.8087 40.6688 34.8264 40.7537 34.8826C40.837 34.9309 40.9032 35.0154 40.9523 35.136C41.0276 35.1452 41.1242 35.1582 41.2419 35.1751C41.3659 35.1825 41.4624 35.1955 41.5315 35.2141C41.6068 35.2232 41.6775 35.2496 41.7436 35.2933C41.855 35.3196 41.9683 35.3945 42.0832 35.5181C42.206 35.6401 42.3022 35.7715 42.3717 35.9125C42.4412 36.0534 42.4651 36.1506 42.4433 36.2041C42.4542 36.1773 42.472 36.3452 42.4968 36.7075C42.5216 37.0698 42.5288 37.3459 42.5185 37.5358C42.5403 37.9233 42.4515 38.57 42.2522 39.4759L42.1781 39.8339C42.0726 40.1575 41.9365 40.5118 41.77 40.8967C41.6034 41.2817 41.442 41.5717 41.2858 41.7668C41.0328 42.0877 40.803 42.3427 40.5966 42.5317C40.3964 42.7112 40.1904 42.8226 39.9788 42.8656C39.7985 42.9024 39.6361 42.9068 39.4917 42.8791C39.3551 42.8498 39.2019 42.7993 39.0322 42.7277C38.8515 42.642 38.687 42.4959 38.5388 42.2893C38.3906 42.0827 38.299 41.8932 38.2639 41.7207C38.2495 41.6502 38.2493 41.589 38.2632 41.5372C38.2522 41.5231 38.2403 41.4847 38.2276 41.422C38.1924 41.2495 38.1788 40.9421 38.1867 40.4996C38.1889 40.2297 38.1868 40.0791 38.1804 40.0478C38.2178 39.9504 38.2417 39.8271 38.2521 39.678C38.2626 39.5289 38.2521 39.4372 38.2206 39.4028C38.1467 39.3607 38.0431 39.3532 37.9099 39.3803C37.706 39.4218 37.4483 39.5396 37.1368 39.7337L36.7117 39.9916C36.5599 40.0879 36.4143 40.1747 36.2749 40.252C36.1355 40.3294 36.0078 40.384 35.8918 40.4157C35.8357 40.5007 35.8094 40.6121 35.813 40.7502C35.8166 40.8882 35.8177 40.9737 35.8162 41.0067L35.7944 41.501C35.7871 41.6658 35.7794 41.9286 35.7712 42.2895C35.7615 42.6425 35.7589 42.8104 35.7636 42.7931C35.7747 42.848 35.7806 42.957 35.7812 43.1202C35.7881 43.3147 35.8043 43.4543 35.8297 43.5389C35.8519 43.6079 35.8601 43.7083 35.8543 43.8401C35.8515 43.9468 35.8605 44.0511 35.8812 44.153C35.9052 44.2706 35.8466 44.3437 35.7055 44.3725C35.5879 44.3964 35.4749 44.3827 35.3664 44.3313ZM39.5368 42.3188C39.7093 42.2837 39.8753 42.2172 40.035 42.1194C40.1931 42.0138 40.3096 41.9043 40.3845 41.7911L40.7567 41.2132C40.9394 40.9474 41.0806 40.7187 41.1803 40.5269C41.2785 40.3273 41.3857 40.032 41.5021 39.6409C41.6108 39.333 41.6806 39.0943 41.7114 38.9248C41.7422 38.7552 41.7643 38.5629 41.7776 38.348C41.7846 38.1016 41.8104 37.8473 41.855 37.5852C41.8934 37.3324 41.898 37.0947 41.869 36.872C41.8463 36.6399 41.803 36.3671 41.7391 36.0535C41.723 35.9343 41.667 35.8396 41.5711 35.7693C41.4829 35.6975 41.3935 35.6789 41.3026 35.7138C41.2728 35.728 41.2203 35.7509 41.1451 35.7826C41.0683 35.8064 41.0018 35.8403 40.9454 35.8845C40.8875 35.9207 40.8437 35.9664 40.8141 36.0214C40.7533 36.1236 40.6814 36.1913 40.5983 36.2245C40.5826 36.2277 40.5544 36.2294 40.5136 36.2295C40.4728 36.2297 40.4328 36.2133 40.3934 36.1805C40.3525 36.1399 40.2966 36.0859 40.2258 36.0187C40.0913 36.1604 40.0023 36.2643 39.9586 36.3303C39.9227 36.3947 39.8542 36.5393 39.753 36.764C39.6346 37.0249 39.532 37.3029 39.4452 37.5982C39.3646 37.884 39.3173 38.0529 39.3034 38.1047C39.0893 38.8177 38.9625 39.5783 38.9229 40.3864C38.9058 40.8635 38.9259 41.2431 38.9834 41.5253C39.0743 41.9721 39.2588 42.2366 39.5368 42.3188ZM43.8645 42.3562C43.7985 42.3125 43.6908 42.2446 43.5414 42.1526C43.508 42.0287 43.4948 41.8232 43.5016 41.5361C43.5147 41.2395 43.5375 41.0104 43.5698 40.8487L43.8216 38.7768C43.8293 38.7344 43.8211 38.6544 43.7972 38.5368C43.7846 38.5149 43.7735 38.4804 43.7639 38.4334C43.7463 38.3472 43.7531 38.2601 43.7842 38.1721C43.8153 38.0841 43.8378 38.0142 43.8517 37.9624L43.9482 37.955C43.9717 37.9502 44.003 37.9439 44.0422 37.9359C44.0877 37.9185 44.1277 37.9144 44.1622 37.9237C44.236 37.925 44.4123 37.8687 44.6912 37.7548C44.9779 37.6393 45.1596 37.5492 45.2362 37.4846L45.6571 37.3867C45.7512 37.3675 45.8226 37.3571 45.8712 37.3553C46.0593 37.317 46.2722 37.4002 46.5098 37.6049L46.3931 37.8736C45.7973 37.9949 45.4086 38.1108 45.227 38.2213C45.1691 38.2575 45.0672 38.2987 44.9215 38.3447C44.7757 38.3907 44.6739 38.4318 44.616 38.4681C44.5723 38.5342 44.5391 38.692 44.5164 38.9415C44.5016 39.1894 44.4927 39.3464 44.4898 39.4123L44.4577 39.676C44.3873 40.172 44.3513 40.4161 44.3497 40.4082C44.3399 40.3204 44.3168 40.4272 44.2802 40.7286C44.2498 41.0205 44.2286 41.2575 44.2167 41.4395C44.2023 41.8098 44.1602 42.1041 44.0903 42.3225L43.8645 42.3562ZM47.652 41.4259C47.5579 41.445 47.4802 41.4445 47.419 41.4243C47.3577 41.4042 47.2674 41.3613 47.1479 41.2958C46.8333 41.0741 46.6529 40.8496 46.6066 40.6223C46.5955 40.5674 46.5914 40.5274 46.5945 40.5023C46.6068 40.4426 46.6035 40.3862 46.5845 40.3329C46.5733 40.278 46.5661 40.2427 46.5629 40.2271C46.5252 40.2021 46.5055 40.1857 46.5039 40.1778C46.5007 40.1622 46.5062 40.1488 46.5202 40.1378C46.5327 40.1189 46.5413 40.1008 46.5459 40.0836C46.593 40.074 46.5999 40.0277 46.5666 39.9446C46.5382 39.8851 46.5416 39.7416 46.5769 39.5139C46.6106 39.2785 46.6679 39.0586 46.7488 38.8544C46.8063 38.6957 46.8958 38.4938 47.0173 38.2486C47.1467 38.0019 47.2669 37.81 47.3778 37.6732C47.5324 37.4702 47.6762 37.3144 47.8092 37.2057C47.9422 37.097 48.0948 37.0047 48.2672 36.9288C48.416 36.8576 48.5178 36.8165 48.5727 36.8053C48.6275 36.7942 48.6778 36.8003 48.7234 36.8236C48.7752 36.8376 48.8435 36.8726 48.9285 36.9288C49.1593 36.9798 49.329 37.0718 49.4378 37.2048C49.5527 37.3283 49.6413 37.543 49.7036 37.8487C49.8073 38.3582 49.7121 38.9532 49.4179 39.6336C49.2903 39.929 49.1624 40.1632 49.0344 40.3362C48.9047 40.5014 48.7265 40.6887 48.4997 40.8982C48.359 41.0493 48.2237 41.1666 48.0938 41.2502C47.9701 41.3244 47.8228 41.3829 47.652 41.4259ZM48.527 39.9496C48.6721 39.6997 48.7803 39.4695 48.8518 39.259C48.9311 39.0469 48.9921 38.7855 49.035 38.4747C49.0471 38.3334 49.0339 38.1687 48.9956 37.9806C48.9478 37.7454 48.8893 37.6185 48.8202 37.5999C48.7338 37.5767 48.6514 37.5731 48.573 37.589C48.4006 37.6241 48.2362 37.7392 48.08 37.9343C47.8926 38.1766 47.7382 38.4611 47.617 38.7878C47.4941 39.1068 47.3817 39.497 47.2798 39.9587C47.2349 40.1392 47.2284 40.3079 47.2603 40.4647C47.2843 40.5823 47.3309 40.6708 47.4001 40.7302C47.4772 40.7879 47.5667 40.8065 47.6686 40.7857C47.9273 40.733 48.2134 40.4544 48.527 39.9496ZM51.513 38.6437C51.3562 38.6756 51.215 38.6839 51.0895 38.6687C50.9797 38.691 50.8989 38.6952 50.8471 38.6813C50.8031 38.6658 50.7591 38.6298 50.715 38.5735C50.6536 38.5125 50.6189 38.4624 50.6109 38.4232C50.6013 38.3762 50.6372 38.3321 50.7187 38.2911C50.7985 38.2422 50.9458 38.1836 51.1605 38.1154C51.4221 37.9968 51.6603 37.9034 51.875 37.8352C52.0975 37.7654 52.3656 37.6986 52.6792 37.6348C52.883 37.5933 53.0226 37.5771 53.0979 37.5862C53.1716 37.5876 53.2596 37.6186 53.3618 37.6795C53.475 37.7544 53.5404 37.835 53.558 37.9212C53.5723 37.9917 53.5514 38.0491 53.495 38.0932C53.4465 38.1357 53.3697 38.1595 53.2646 38.1646L52.5358 38.3742C52.4888 38.3838 52.3618 38.4219 52.1549 38.4885C51.9543 38.5457 51.7403 38.5974 51.513 38.6437ZM57.1252 39.9136C56.9277 39.9456 56.7488 39.9494 56.5887 39.9248C56.4302 39.9081 56.2245 39.8602 55.9716 39.7811C55.7093 39.6957 55.4822 39.5827 55.2903 39.4422C55.1046 39.2922 54.9118 39.1069 54.7118 38.8864C54.6472 38.8098 54.6069 38.7322 54.591 38.6538C54.5718 38.5598 54.5817 38.468 54.6206 38.3784C54.6906 38.2009 54.7733 38.0656 54.8687 37.9727C54.9453 37.9082 55.0072 37.8711 55.0542 37.8615C55.0856 37.8551 55.1271 37.8589 55.179 37.8728C55.2292 37.8789 55.2747 37.8819 55.3155 37.8818C55.3798 37.8768 55.423 37.8885 55.4451 37.9166C55.4734 37.9354 55.5017 37.9745 55.5302 38.034C55.5665 38.0919 55.6012 38.142 55.6343 38.1843C55.5907 38.2911 55.551 38.3767 55.5151 38.4412C55.4777 38.4978 55.4268 38.549 55.3627 38.5947C55.5502 38.8341 55.7886 39.0223 56.0777 39.1594C56.1956 39.217 56.3385 39.2573 56.5064 39.2803C56.6822 39.3017 56.8289 39.3004 56.9465 39.2764C56.9936 39.2668 57.028 39.2557 57.05 39.2431L57.0828 39.2242C57.1064 39.2194 57.1432 39.22 57.1935 39.2261C57.2437 39.2322 57.2829 39.2243 57.311 39.2022C57.3408 39.188 57.4066 39.1705 57.5085 39.1497C57.6167 39.1196 57.7099 39.0761 57.7882 39.0193C58.2674 38.7667 58.6348 38.3857 58.8903 37.8765C58.9869 37.6691 59.0435 37.4861 59.0602 37.3276C59.0832 37.1596 59.0754 36.9612 59.037 36.7322C59.0319 36.6271 59.008 36.5299 58.9654 36.4407C58.9211 36.3435 58.8745 36.255 58.8256 36.1752C58.7829 36.0859 58.7498 36.0233 58.7261 35.9873C58.6993 35.9356 58.6513 35.9005 58.5822 35.8819C58.5115 35.8554 58.4573 35.8297 58.4195 35.8048C58.3364 35.7972 58.2194 35.7843 58.0687 35.766C57.9181 35.7477 57.7839 35.7505 57.6663 35.7744C57.5409 35.8 57.4273 35.8435 57.3255 35.905C57.2065 35.9619 57.1391 35.992 57.1235 35.9952C57.0686 36.0063 57.0066 36.0026 56.9375 35.984C56.8668 35.9576 56.8228 35.9421 56.8056 35.9374C56.7208 35.922 56.6335 35.8745 56.5438 35.7948C56.4604 35.7056 56.4099 35.6179 56.3923 35.5317C56.3859 35.5004 56.3874 35.4674 56.3967 35.4329C56.4215 35.3543 56.466 35.2922 56.5302 35.2465C56.6022 35.1992 56.679 35.1754 56.7606 35.1751C56.7935 35.1765 56.8453 35.1701 56.9158 35.1557C57.0491 35.1286 57.1948 35.0622 57.3529 34.9565C57.4468 34.8966 57.5915 34.7651 57.7869 34.562C57.9807 34.3511 58.0791 34.2331 58.0822 34.208C58.2553 33.8951 58.3862 33.6358 58.4749 33.43C58.5636 33.2241 58.6263 32.9909 58.6631 32.7304C58.719 32.5639 58.7238 32.367 58.6775 32.1396C58.6472 31.9907 58.5981 31.87 58.5304 31.7777C58.4909 31.7041 58.4036 31.6565 58.2686 31.635C58.1399 31.6041 58.0128 31.6014 57.8874 31.627C57.8246 31.6397 57.7714 31.6587 57.7275 31.684C57.6021 31.7095 57.4196 31.7957 57.1801 31.9424C56.9484 32.0875 56.8099 32.1892 56.7646 32.2474C56.7505 32.2585 56.6537 32.3843 56.4741 32.625C56.2929 32.8578 56.1758 33.0449 56.123 33.1863C56.1028 33.2475 56.03 33.2909 55.9046 33.3165C55.8654 33.3245 55.8293 33.3277 55.7963 33.3263C55.7634 33.3248 55.7383 33.3218 55.721 33.3171C55.6155 33.1998 55.5531 33.0941 55.534 33.0001C55.5085 32.8746 55.5362 32.7302 55.6172 32.5667C55.7154 32.3671 55.8042 32.2021 55.8838 32.0716C55.9712 31.9395 56.0775 31.8199 56.2026 31.7128C56.2574 31.6608 56.3504 31.5766 56.4818 31.46C56.6132 31.3434 56.7376 31.2528 56.8551 31.1881C56.8848 31.1739 56.9655 31.1289 57.097 31.0531C57.2348 30.9679 57.3781 30.9101 57.5271 30.8798C57.5976 30.8654 57.6494 30.859 57.6823 30.8604C57.9301 30.8345 58.1192 30.8409 58.2496 30.8797C58.3878 30.9168 58.6085 31.0189 58.9119 31.1857C59.036 31.2339 59.1423 31.3347 59.2307 31.4882C59.3191 31.6416 59.3848 31.8242 59.4279 32.0358C59.5061 32.42 59.5057 32.7588 59.4267 33.0525C59.4081 33.1216 59.3678 33.2645 59.3058 33.4812C59.2422 33.6901 59.1699 33.8763 59.0889 34.0398C58.9845 34.2488 58.873 34.4633 58.7546 34.6834C58.7437 34.7101 58.6905 34.7699 58.5951 34.8628C58.4982 34.9479 58.4129 35.0101 58.3393 35.0496C58.4915 35.0757 58.6714 35.1371 58.8788 35.2337C59.0941 35.3286 59.2223 35.4168 59.2634 35.4983C59.5547 35.8063 59.7474 36.1916 59.8416 36.6541C59.8863 36.8736 59.9114 37.1175 59.9171 37.3858C59.8658 37.535 59.7967 37.7573 59.7099 38.0525C59.6447 38.2536 59.5645 38.4209 59.4692 38.5546C59.3724 38.6805 59.2325 38.8355 59.0496 39.0197C58.8182 39.2464 58.5881 39.4198 58.3595 39.5398C58.0415 39.7025 57.7336 39.8142 57.4357 39.8749C57.3574 39.8908 57.2538 39.9037 57.1252 39.9136ZM61.2611 38.398C61.228 38.3558 61.1792 38.3167 61.1148 38.2808C61.0565 38.2355 61.0258 38.2051 61.0227 38.1894C61.0051 38.1031 60.9719 38.0405 60.9232 38.0014C60.9043 37.989 60.8893 37.9553 60.8781 37.9004C60.8526 37.775 60.8683 37.5514 60.9252 37.2295C60.9884 36.8983 61.0821 36.5363 61.2062 36.1436C61.2437 36.087 61.2857 35.9927 61.3323 35.8608C61.3868 35.7272 61.4242 35.6502 61.4445 35.6298C61.4381 35.5984 61.4443 35.5686 61.463 35.5403C61.4801 35.5041 61.5044 35.4829 61.5357 35.4765L61.5214 35.4059C61.507 35.3354 61.6021 35.1405 61.8065 34.8213C62.0093 34.4943 62.1827 34.263 62.3265 34.1276C62.4954 33.9544 62.6817 33.8471 62.8855 33.8056C63.0266 33.7769 63.1561 33.7913 63.274 33.849C63.3228 33.888 63.5374 34.0199 63.9179 34.2445L64.4319 34.5439L64.34 35.175C64.3125 35.401 64.3163 35.6002 64.3514 35.7727C64.4121 36.0706 64.5566 36.3392 64.7849 36.5784C64.8417 36.6567 64.9368 36.723 65.0704 36.7775C65.2039 36.8319 65.3311 36.855 65.4518 36.8468C65.6307 36.843 65.7345 36.9117 65.7632 37.0528C65.7951 37.2096 65.7437 37.318 65.609 37.3781C65.5792 37.3923 65.533 37.4058 65.4703 37.4186C65.0078 37.5127 64.5417 37.2688 64.0722 36.6868C64.0313 36.6461 63.9706 36.5687 63.8902 36.4544C63.8176 36.3386 63.7726 36.2579 63.7552 36.2125C63.7209 36.2848 63.6773 36.3712 63.6243 36.4718C63.5713 36.5724 63.5198 36.6605 63.4699 36.7359C62.7894 37.7644 62.2022 38.3289 61.7083 38.4294C61.5515 38.4613 61.4025 38.4509 61.2611 38.398ZM61.5503 37.6533C61.5583 37.6925 61.5999 37.6963 61.6751 37.6647C61.7581 37.6314 61.8521 37.5715 61.9569 37.4848C62.0695 37.3966 62.1782 37.2887 62.2829 37.1613C62.839 36.4439 63.222 35.8394 63.4322 35.3476L63.6047 34.8716C63.4928 34.7229 63.3865 34.6221 63.2859 34.5691C63.1837 34.5082 63.0973 34.485 63.0268 34.4994C62.8622 34.5329 62.6458 34.7933 62.3776 35.2806C62.1078 35.7601 61.8846 36.3076 61.7078 36.9232C61.6644 37.0709 61.6296 37.2208 61.6035 37.3731C61.5757 37.5175 61.558 37.6109 61.5503 37.6533ZM66.698 37.4625C66.6416 37.4659 66.5858 37.4527 66.5308 37.4231C66.4836 37.3919 66.427 37.3544 66.361 37.3107C66.3028 37.2654 66.2509 37.2311 66.2053 37.2077C66.1719 37.0839 66.1687 36.8478 66.1958 36.4994C66.2212 36.1431 66.2541 35.8834 66.2943 35.72C66.2875 35.5663 66.3062 35.3176 66.3505 34.9738C66.3841 34.6976 66.4016 34.543 66.4031 34.51C66.4112 34.1491 66.4275 33.8478 66.4517 33.6061C66.4609 33.5308 66.463 33.461 66.4581 33.3967C66.461 33.3308 66.4679 33.2845 66.4788 33.2577C66.4975 33.2294 66.5452 33.183 66.6218 33.1184C66.7317 33.1369 66.8219 33.1389 66.8925 33.1245C66.9552 33.1118 67.0139 33.0794 67.0687 33.0274C67.0906 33.0148 67.1219 33.0084 67.1627 33.0083C67.2098 32.9987 67.2607 32.9883 67.3156 32.9772L67.5861 32.9221C67.7742 32.8838 67.8949 32.8551 67.9482 32.8361C68.025 32.8123 68.1371 32.8017 68.2846 32.8044C68.4321 32.807 68.5411 32.8011 68.6117 32.7868C68.9084 32.8407 69.1353 32.9128 69.2926 33.0033C69.456 33.0843 69.5546 33.2275 69.5882 33.4329C69.5963 33.5129 69.6116 33.6282 69.6341 33.7787C69.6566 33.9293 69.6508 34.0611 69.6167 34.1742C69.6184 34.2228 69.5971 34.419 69.5528 34.7627C69.4744 35.2196 69.4425 35.524 69.4571 35.6762C69.4557 35.7091 69.4456 35.7602 69.427 35.8293C69.4085 35.8984 69.4039 35.9564 69.4135 36.0035C69.4311 36.0897 69.4369 36.1987 69.4311 36.3305C69.4315 36.4529 69.4138 36.5463 69.378 36.6108C69.328 36.6862 69.2639 36.732 69.1855 36.7479C69.0757 36.7703 68.9697 36.751 68.8675 36.6902C68.7638 36.6215 68.7054 36.5354 68.6925 36.4319C68.6542 36.2438 68.622 36.0054 68.5959 35.7168C68.6458 35.6413 68.6644 35.5722 68.6517 35.5095C68.6451 35.4374 68.6403 35.3935 68.6371 35.3778C68.6879 35.1062 68.7253 34.7883 68.7491 34.4243C68.7714 34.0523 68.7625 33.7684 68.7226 33.5724C68.7067 33.494 68.6924 33.4439 68.6798 33.4219C68.4916 33.4603 68.2353 33.5247 67.9109 33.6152C67.5864 33.7058 67.4046 33.755 67.3654 33.763C67.3356 33.7772 67.3122 33.8024 67.295 33.8386C67.2763 33.8669 67.2693 33.8928 67.2741 33.9163C67.2809 34.07 67.262 34.278 67.2174 34.5402C67.2129 34.5982 67.2031 34.69 67.1878 34.8156C67.171 34.9333 67.1635 35.0369 67.1653 35.1263C67.1655 35.1671 67.1434 35.3594 67.0991 35.7032C67.0115 36.2353 66.9781 36.5728 66.999 36.7155C66.9587 36.838 66.9584 36.9972 66.9983 37.1932C67.0033 37.2575 66.9846 37.3062 66.9423 37.3393C66.8985 37.3646 66.8171 37.4056 66.698 37.4625ZM71.9098 36.3157C71.8346 36.3474 71.7656 36.3696 71.7029 36.3823C71.601 36.4031 71.5053 36.4144 71.4159 36.4163C71.3249 36.4103 71.2762 36.3917 71.2698 36.3603C71.265 36.3368 71.2579 36.3219 71.2485 36.3157C71.239 36.3094 71.2226 36.3087 71.199 36.3135C71.1896 36.3072 71.1621 36.2924 71.1165 36.269C71.0709 36.2457 71.0183 36.2278 70.9587 36.2155C70.8658 36.1201 70.8065 36.0097 70.781 35.8842C70.7539 35.751 70.7469 35.5361 70.76 35.2395C70.7324 34.9838 70.7862 34.6463 70.9212 34.227C71.0563 33.8076 71.2306 33.4006 71.4441 33.0061C71.6656 32.61 71.8764 32.3221 72.0766 32.1426C72.1702 32.001 72.3072 31.9119 72.4875 31.8752C72.6286 31.8465 72.7691 31.8546 72.9089 31.8996C73.0314 31.94 73.1666 32.0227 73.3145 32.1477C73.4702 32.2711 73.5994 32.404 73.7018 32.5464C73.7571 32.6576 73.796 32.7681 73.8183 32.8779C73.8422 32.9955 73.8641 33.1829 73.8838 33.4401C73.8733 33.5892 73.8731 33.7688 73.8833 33.979C73.9013 34.1876 73.9254 34.3664 73.9557 34.5154C73.9624 34.6283 73.9886 34.7169 74.0343 34.781C74.0784 34.8374 74.1279 34.8599 74.1828 34.8488C74.222 34.8408 74.2627 34.8203 74.305 34.7872C74.3754 34.732 74.4576 34.6948 74.5517 34.6757C74.6379 34.6581 74.7133 34.6673 74.7777 34.7032C74.8422 34.739 74.884 34.804 74.9031 34.8981C74.9319 35.0392 74.8626 35.2002 74.6953 35.3812C74.5359 35.5606 74.37 35.6679 74.1975 35.703C74.0799 35.7269 73.9518 35.6591 73.8132 35.4996C73.6809 35.3306 73.5381 35.1107 73.385 34.8398L73.2594 34.5837L72.8519 35.1687L72.6365 35.4942C72.5366 35.6452 72.4812 35.734 72.4703 35.7607C72.4144 35.9272 72.2276 36.1122 71.9098 36.3157ZM71.8038 35.6148C71.9696 35.4667 72.1618 35.2276 72.3803 34.8974C72.5988 34.5671 72.7727 34.2582 72.9019 33.9707C73.0795 33.5998 73.1677 33.2512 73.1666 32.9248C73.1161 32.8372 73.0459 32.7535 72.9562 32.6737C72.8665 32.594 72.7935 32.5559 72.737 32.5592C72.5802 32.5911 72.4339 32.7148 72.2982 32.9302C72.1624 33.1456 72.0097 33.438 71.8399 33.8072L71.5692 34.4624C71.5349 34.5347 71.4869 34.72 71.4252 35.0183C71.3619 35.3088 71.3358 35.4815 71.347 35.5363C71.3821 35.7088 71.4506 35.7847 71.5525 35.7639C71.6309 35.748 71.7147 35.6982 71.8038 35.6148ZM75.5409 35.0009C75.5251 34.9633 75.5005 34.8826 75.4671 34.7587C75.4337 34.6349 75.395 34.5652 75.351 34.5497L75.3337 34.2838C75.3044 33.9795 75.2981 33.7482 75.3148 33.5896C75.3284 33.4562 75.3686 33.2725 75.4353 33.0385C75.5019 32.8045 75.5673 32.6443 75.6313 32.5577C75.6625 32.5106 75.6992 32.45 75.7413 32.3762C75.7818 32.2944 75.8224 32.2331 75.863 32.1922C75.8896 32.1623 75.909 32.1175 75.9214 32.0578C75.94 31.9887 75.9633 31.9431 75.9915 31.9211L76.2001 31.6827C76.2923 31.5741 76.3736 31.4922 76.444 31.4371C76.5129 31.3741 76.6099 31.3094 76.7352 31.2431C76.8088 31.2036 76.8902 31.1625 76.9795 31.1199C77.0751 31.0678 77.1542 31.0353 77.2169 31.0226C77.2953 31.0066 77.4255 31.0046 77.6075 31.0165C77.598 30.9695 77.567 30.8778 77.5148 30.7415C77.4704 30.6036 77.4466 30.5268 77.4434 30.5111C77.4465 30.486 77.4424 30.446 77.4312 30.3911C77.4169 30.3206 77.4002 30.2586 77.3812 30.2054C77.3621 30.1521 77.3463 30.1145 77.3337 30.0926C77.3054 30.0738 77.277 30.0347 77.2486 29.9752C77.228 29.9141 77.2121 29.8765 77.2011 29.8624C77.1378 29.712 77.0818 29.6173 77.033 29.5782C77.02 29.4339 76.9364 29.304 76.7822 29.1884C76.6359 29.0712 76.4607 28.9926 76.2566 28.9525C76.0525 28.9124 75.8776 28.9154 75.7318 28.9614C75.7005 28.9678 75.6472 28.9868 75.572 29.0184C75.503 29.0406 75.4396 29.0699 75.3817 29.1062C75.3221 29.1346 75.2729 29.1732 75.2338 29.222C75.1805 29.241 75.1108 29.2593 75.0245 29.2768C74.9305 29.296 74.8559 29.2908 74.8009 29.2611C74.6813 29.1549 74.6042 29.0767 74.5695 29.0266C74.5348 28.9765 74.5299 28.9326 74.5549 28.8949C74.572 28.8587 74.6268 28.8067 74.7191 28.739C74.8177 28.6617 74.9037 28.583 74.9772 28.5027C75.0023 28.5058 75.0305 28.5041 75.0619 28.4977C75.0854 28.4929 75.1222 28.4732 75.1723 28.4385C75.2224 28.4038 75.2811 28.3919 75.3486 28.4026C75.3909 28.3695 75.4551 28.3442 75.5414 28.3266C75.6903 28.2963 75.815 28.2872 75.9155 28.2994C75.9422 28.3103 75.972 28.3165 76.005 28.318C76.0379 28.3194 76.0583 28.3194 76.0661 28.3178C76.3533 28.3246 76.6155 28.3896 76.8529 28.5127C77.0964 28.6264 77.3073 28.7998 77.4854 29.033L77.8897 29.5752C77.9039 29.605 77.9316 29.681 77.9728 29.8032C78.0124 29.9176 78.0576 30.0391 78.1082 30.1675L78.2199 30.4755C78.2547 30.5663 78.2761 30.6314 78.2841 30.6706C78.2953 30.7254 78.3042 30.8093 78.3109 30.9223C78.3429 31.5607 78.3175 32.1578 78.2347 32.7135C78.1519 33.2692 78.004 33.8463 77.7912 34.4448C77.7274 34.6129 77.5753 34.848 77.3347 35.15C77.1535 35.3829 76.8724 35.5462 76.4915 35.6401C76.273 35.5295 76.0962 35.443 75.9611 35.3807C75.8322 35.309 75.7434 35.2536 75.6946 35.2145C75.6521 35.166 75.6008 35.0948 75.5409 35.0009ZM76.4918 35.04C76.5121 35.0195 76.5552 34.9903 76.6209 34.9525C76.6929 34.9051 76.7343 34.8477 76.7451 34.7802C76.8638 34.6417 76.9971 34.3942 77.1449 34.0375C77.2927 33.6809 77.3897 33.3754 77.4359 33.121C77.4452 33.0865 77.4544 33.0112 77.4634 32.895C77.4802 32.7773 77.505 32.6784 77.5377 32.5982C77.5765 32.4679 77.6003 32.3242 77.6091 32.1673C77.618 32.0104 77.6105 31.8731 77.5865 31.7555C77.569 31.6693 77.5429 31.6012 77.5082 31.5511C77.1355 31.7657 76.843 32.0131 76.6306 32.2931C76.4182 32.5731 76.2468 32.9345 76.1166 33.3774C76.1202 33.5155 76.1066 33.6693 76.0758 33.8388C76.0421 34.0743 76.0325 34.2477 76.047 34.359C76.0238 34.4454 76.0201 34.5278 76.0361 34.6062C76.0536 34.6924 76.0956 34.7982 76.1619 34.9234C76.2814 34.9889 76.3576 35.0224 76.3905 35.0238C76.4235 35.0253 76.4572 35.0307 76.4918 35.04Z" fill="black"/>
<path d="M24 44.296C24 44.3387 23.9733 44.36 23.92 44.36L12.944 44.344C12.8907 44.344 12.864 44.3173 12.864 44.264V42.488C12.864 42.4347 12.8907 42.408 12.944 42.408L22.032 42.424V39.128C22.032 39.0747 22.0587 39.048 22.112 39.048H23.92C23.9733 39.048 24 39.0747 24 39.128V44.296ZM24.16 35.2594C24.16 35.8354 24.016 36.3634 23.728 36.8434C23.4293 37.3127 23.04 37.6914 22.56 37.9794C22.0693 38.2674 21.5307 38.4114 20.944 38.4114L15.872 38.3954C15.2853 38.3954 14.752 38.2567 14.272 37.9794C13.792 37.6914 13.408 37.3074 13.12 36.8274C12.832 36.3474 12.688 35.8247 12.688 35.2594C12.688 34.6834 12.832 34.1607 13.12 33.6914C13.408 33.222 13.792 32.8487 14.272 32.5714C14.752 32.2834 15.2853 32.1394 15.872 32.1394L20.944 32.1234C21.5307 32.1234 22.0693 32.2674 22.56 32.5554C23.04 32.8327 23.4293 33.2114 23.728 33.6914C24.016 34.1607 24.16 34.6834 24.16 35.2594ZM22.224 35.2594C22.224 34.9394 22.096 34.662 21.84 34.4274C21.5733 34.182 21.2747 34.0594 20.944 34.0594L15.872 34.0754C15.52 34.0754 15.2213 34.1874 14.976 34.4114C14.7307 34.6354 14.608 34.918 14.608 35.2594C14.608 35.59 14.7307 35.8727 14.976 36.1074C15.2107 36.342 15.5093 36.4594 15.872 36.4594H20.944C21.296 36.4594 21.6 36.342 21.856 36.1074C22.1013 35.8727 22.224 35.59 22.224 35.2594ZM24 30.7629C24 30.8482 23.9627 30.8909 23.888 30.8909L12.992 30.9069C12.9067 30.9069 12.864 30.8642 12.864 30.7789V29.3389L19.168 26.6349L12.992 26.7149C12.9067 26.7149 12.864 26.6669 12.864 26.5709V24.9869C12.864 24.9229 12.9067 24.8909 12.992 24.8909L23.904 24.8749C23.968 24.8749 24 24.9015 24 24.9549V26.3629L18.112 29.1309L23.872 29.0189C23.9573 29.0189 24 29.0669 24 29.1629V30.7629ZM24 23.405C24 23.4583 23.9733 23.485 23.92 23.485L12.928 23.453C12.8853 23.453 12.864 23.4317 12.864 23.389L12.848 20.397C12.8373 19.8103 12.976 19.277 13.264 18.797C13.552 18.3063 13.9413 17.917 14.432 17.629C14.912 17.341 15.4453 17.197 16.032 17.197H20.624C21.2427 17.197 21.808 17.3463 22.32 17.645C22.8213 17.9437 23.2213 18.3437 23.52 18.845C23.8187 19.3463 23.9733 19.9117 23.984 20.541L24 23.405ZM22.032 21.533V20.541C22.032 20.1463 21.8933 19.8157 21.616 19.549C21.3387 19.2717 21.008 19.133 20.624 19.133H16.016C15.6747 19.133 15.3813 19.261 15.136 19.517C14.88 19.7623 14.7573 20.0557 14.768 20.397L14.784 21.517L22.032 21.533ZM24.16 13.3687C24.16 13.9447 24.016 14.4727 23.728 14.9527C23.4293 15.4221 23.04 15.8007 22.56 16.0887C22.0693 16.3767 21.5307 16.5207 20.944 16.5207L15.872 16.5047C15.2853 16.5047 14.752 16.3661 14.272 16.0887C13.792 15.8007 13.408 15.4167 13.12 14.9367C12.832 14.4567 12.688 13.9341 12.688 13.3687C12.688 12.7927 12.832 12.2701 13.12 11.8007C13.408 11.3314 13.792 10.9581 14.272 10.6807C14.752 10.3927 15.2853 10.2487 15.872 10.2487L20.944 10.2327C21.5307 10.2327 22.0693 10.3767 22.56 10.6647C23.04 10.9421 23.4293 11.3207 23.728 11.8007C24.016 12.2701 24.16 12.7927 24.16 13.3687ZM22.224 13.3687C22.224 13.0487 22.096 12.7714 21.84 12.5367C21.5733 12.2914 21.2747 12.1687 20.944 12.1687L15.872 12.1847C15.52 12.1847 15.2213 12.2967 14.976 12.5207C14.7307 12.7447 14.608 13.0274 14.608 13.3687C14.608 13.6994 14.7307 13.9821 14.976 14.2167C15.2107 14.4514 15.5093 14.5687 15.872 14.5687H20.944C21.296 14.5687 21.6 14.4514 21.856 14.2167C22.1013 13.9821 22.224 13.6994 22.224 13.3687ZM24 8.87225C24 8.95758 23.9627 9.00025 23.888 9.00025L12.992 9.01625C12.9067 9.01625 12.864 8.97358 12.864 8.88825V7.44825L19.168 4.74425L12.992 4.82425C12.9067 4.82425 12.864 4.77625 12.864 4.68025V3.09625C12.864 3.03225 12.9067 3.00025 12.992 3.00025L23.904 2.98425C23.968 2.98425 24 3.01092 24 3.06425V4.47225L18.112 7.24025L23.872 7.12825C23.9573 7.12825 24 7.17625 24 7.27225V8.87225Z" fill="black"/>
<path d="M32.2656 13.9531C31.474 13.9531 30.776 13.7865 30.1719 13.4531C29.5677 13.1198 29.0573 12.6719 28.6406 12.1094C28.2448 11.5573 27.9479 10.9219 27.75 10.2031C27.5521 9.47396 27.4531 8.68229 27.4531 7.82812C27.4531 7.03646 27.5521 6.28646 27.75 5.57812C27.9479 4.85938 28.2396 4.21354 28.625 3.64062C29.0521 3.07812 29.5677 2.61979 30.1719 2.26562C30.776 1.91146 31.474 1.73438 32.2656 1.73438C33.0573 1.73438 33.75 1.90104 34.3438 2.23438C34.9479 2.56771 35.4583 3.01562 35.875 3.57812C36.2604 4.13021 36.5573 4.76562 36.7656 5.48438C36.974 6.20312 37.0781 6.97917 37.0781 7.8125C37.0781 8.625 36.9844 9.38542 36.7969 10.0938C36.6198 10.8021 36.3385 11.4531 35.9531 12.0469C35.5573 12.6198 35.0521 13.0833 34.4375 13.4375C33.8229 13.7812 33.099 13.9531 32.2656 13.9531ZM29.2656 7.8125C29.2656 8.4375 29.3333 9.02083 29.4688 9.5625C29.6042 10.0938 29.8021 10.5781 30.0625 11.0156C30.3021 11.4219 30.6042 11.7448 30.9688 11.9844C31.3333 12.2135 31.7656 12.3281 32.2656 12.3281C32.7552 12.3281 33.1823 12.2188 33.5469 12C33.9115 11.7708 34.2188 11.4583 34.4688 11.0625C34.7188 10.6562 34.9062 10.1823 35.0312 9.64062C35.1667 9.08854 35.2344 8.47396 35.2344 7.79688C35.2344 7.19271 35.1667 6.61458 35.0312 6.0625C34.9062 5.51042 34.7135 5.04167 34.4531 4.65625C34.2031 4.25 33.8958 3.93229 33.5312 3.70312C33.1667 3.47396 32.7396 3.35938 32.25 3.35938C31.8021 3.36979 31.3958 3.48438 31.0312 3.70312C30.6771 3.92188 30.3698 4.22917 30.1094 4.625C29.849 5 29.6406 5.46354 29.4844 6.01562C29.3385 6.56771 29.2656 7.16667 29.2656 7.8125ZM39.9062 6.84375V13.7656H38.2812V5.29688H44.2031V13.7656H42.5781V6.84375H39.9062ZM49.9062 13.7656V13.0781C49.5833 13.4115 49.4688 13.5573 49.5625 13.5156C49.5833 13.5052 49.6198 13.4792 49.6719 13.4375C49.6302 13.4583 49.5938 13.4844 49.5625 13.5156C49.3438 13.6302 49.1094 13.724 48.8594 13.7969C48.5365 13.901 48.1719 13.9531 47.7656 13.9531C47.4948 13.9531 47.224 13.901 46.9531 13.7969C46.6927 13.6823 46.4479 13.526 46.2188 13.3281C46.0208 13.099 45.8594 12.8438 45.7344 12.5625C45.6094 12.2708 45.5469 11.9427 45.5469 11.5781C45.5469 10.9323 45.7188 10.3698 46.0625 9.89062C46.4167 9.40104 46.849 9.06771 47.3594 8.89062C47.6615 8.79688 47.9583 8.72917 48.25 8.6875C48.5521 8.64583 48.8438 8.61979 49.125 8.60938C49.4479 8.58854 49.7083 8.61458 49.9062 8.6875V8.09375C49.9062 8.02083 49.8906 7.89062 49.8594 7.70312C49.8385 7.50521 49.7917 7.32812 49.7188 7.17188C49.6354 7.03646 49.5156 6.91667 49.3594 6.8125C49.2135 6.70833 49 6.65625 48.7188 6.65625C48.3542 6.65625 48.0781 6.73958 47.8906 6.90625C47.7031 7.07292 47.6094 7.41146 47.6094 7.92188H45.7188C45.7188 7.41146 45.7812 7.01042 45.9062 6.71875C46.0312 6.41667 46.2188 6.14583 46.4688 5.90625C46.7396 5.66667 47.0573 5.47396 47.4219 5.32812C47.7865 5.17188 48.2188 5.09375 48.7188 5.09375C49.7188 5.09375 50.4531 5.38021 50.9219 5.95312C51.3906 6.52604 51.625 7.21354 51.625 8.01562V13.7656H49.9062ZM49.9062 10.5625V10.0312C49.875 10.0208 49.7083 10.0208 49.4062 10.0312C49.1146 10.0312 48.8125 10.0729 48.5 10.1562C48.375 10.1979 48.2344 10.25 48.0781 10.3125C47.9323 10.375 47.8021 10.4583 47.6875 10.5625C47.5938 10.6667 47.5104 10.7917 47.4375 10.9375C47.375 11.0729 47.3438 11.2344 47.3438 11.4219C47.3438 11.8281 47.4323 12.0938 47.6094 12.2188C47.7969 12.3333 48.0312 12.3906 48.3125 12.3906C48.5417 12.3906 48.8073 12.2865 49.1094 12.0781C49.474 11.8385 49.6979 11.5885 49.7812 11.3281C49.8646 10.974 49.9062 10.7188 49.9062 10.5625ZM59.375 12.0156V13.5625C58.9583 13.7083 58.5833 13.8125 58.25 13.875C57.9271 13.9271 57.5885 13.9531 57.2344 13.9531C56.5885 13.9531 55.9688 13.8594 55.375 13.6719C54.7917 13.474 54.3125 13.1719 53.9375 12.7656C53.625 12.3906 53.3542 11.9115 53.125 11.3281C52.9062 10.7448 52.7969 10.0885 52.7969 9.35938C52.7969 8.13021 53.1198 7.11458 53.7656 6.3125C54.4219 5.5 55.3385 5.09375 56.5156 5.09375C56.9948 5.09375 57.4531 5.16667 57.8906 5.3125C58.3281 5.45833 58.7031 5.71875 59.0156 6.09375C59.2031 6.33333 59.349 6.60938 59.4531 6.92188C59.5573 7.23438 59.6094 7.6875 59.6094 8.28125H57.7969C57.7969 7.90625 57.776 7.63021 57.7344 7.45312C57.7031 7.27604 57.651 7.13542 57.5781 7.03125C57.526 6.94792 57.3854 6.86458 57.1562 6.78125C56.9271 6.69792 56.6979 6.65625 56.4688 6.65625C55.9375 6.65625 55.4844 6.86979 55.1094 7.29688C54.7448 7.71354 54.5625 8.31771 54.5625 9.10938C54.5625 9.36979 54.5781 9.64062 54.6094 9.92188C54.6406 10.1927 54.7083 10.4583 54.8125 10.7188C54.8958 10.9896 55.026 11.2448 55.2031 11.4844C55.3802 11.7135 55.6146 11.9219 55.9062 12.1094C56.0625 12.1823 56.3073 12.25 56.6406 12.3125C56.974 12.3646 57.276 12.3906 57.5469 12.3906C57.6615 12.3906 57.849 12.375 58.1094 12.3438C58.3698 12.3125 58.7917 12.2031 59.375 12.0156ZM60.5938 13.7656V5.29688H62.2188V8.60938H64.8906V5.29688H66.5156V13.7656H64.8906V10.1562H62.2188V13.7656H60.5938ZM74.3125 13.7656V5.29688H76.0156V13.7656H74.3125ZM69.6094 8.54688H71.0156C71.8698 8.54688 72.599 8.77083 73.2031 9.21875C73.8073 9.66667 74.1094 10.3229 74.1094 11.1875C74.1094 11.8542 73.901 12.4062 73.4844 12.8438C73.0781 13.2708 72.6198 13.5417 72.1094 13.6562C71.7344 13.7292 71.3958 13.7656 71.0938 13.7656H67.9844V5.29688H69.6094V8.54688ZM69.6094 10.0938V12.2188H71.0469C71.474 12.2188 71.8177 12.1354 72.0781 11.9688C72.3385 11.8021 72.4688 11.5312 72.4688 11.1562C72.4688 10.9479 72.4219 10.776 72.3281 10.6406C72.2448 10.5052 72.1562 10.401 72.0625 10.3281C71.9375 10.2552 71.7865 10.1979 71.6094 10.1562C71.4427 10.1146 71.2812 10.0938 71.125 10.0938H69.6094ZM83.7188 12.0156V13.5625C83.3021 13.7083 82.9271 13.8125 82.5938 13.875C82.2708 13.9271 81.9323 13.9531 81.5781 13.9531C80.9323 13.9531 80.3125 13.8594 79.7188 13.6719C79.1354 13.474 78.6562 13.1719 78.2812 12.7656C77.9688 12.3906 77.6979 11.9115 77.4688 11.3281C77.25 10.7448 77.1406 10.0885 77.1406 9.35938C77.1406 8.13021 77.4635 7.11458 78.1094 6.3125C78.7656 5.5 79.6823 5.09375 80.8594 5.09375C81.3906 5.09375 81.875 5.22396 82.3125 5.48438C82.7604 5.73438 83.1198 6.08854 83.3906 6.54688C83.6094 6.92188 83.7552 7.33854 83.8281 7.79688C83.9115 8.25521 83.9531 8.76562 83.9531 9.32812V9.95312H78.9219C78.9531 10.2344 79.0625 10.5938 79.25 11.0312C79.4375 11.4583 79.7708 11.8177 80.25 12.1094C80.4062 12.1823 80.651 12.25 80.9844 12.3125C81.3177 12.3646 81.6198 12.3906 81.8906 12.3906C82.0052 12.3906 82.1927 12.375 82.4531 12.3438C82.7135 12.3125 83.1354 12.2031 83.7188 12.0156ZM81.9219 7.34375C81.7656 7.11458 81.599 6.94271 81.4219 6.82812C81.2552 6.71354 81.0469 6.65625 80.7969 6.65625C80.2969 6.65625 79.8698 6.83854 79.5156 7.20312C79.1719 7.55729 78.9792 7.95833 78.9375 8.40625H82.1406C82.1406 8.38542 82.125 8.25 82.0938 8C82.0729 7.73958 82.0156 7.52083 81.9219 7.34375ZM35.5312 26.9219V29.125C35.1354 29.3958 34.6719 29.6042 34.1406 29.75C33.6094 29.8854 32.974 29.9531 32.2344 29.9531C31.5573 29.9531 30.8646 29.7604 30.1562 29.375C29.4583 28.9896 28.9115 28.4896 28.5156 27.875C28.1198 27.2604 27.8333 26.5938 27.6562 25.875C27.4792 25.1458 27.3906 24.401 27.3906 23.6406C27.3906 22.8802 27.4792 22.1562 27.6562 21.4688C27.8438 20.7812 28.1458 20.1615 28.5625 19.6094C28.9583 19.0573 29.4583 18.6094 30.0625 18.2656C30.6771 17.9115 31.3906 17.7344 32.2031 17.7344C32.9427 17.7344 33.625 17.9219 34.25 18.2969C34.875 18.6719 35.3385 19.2031 35.6406 19.8906C35.7448 20.1198 35.8125 20.3698 35.8438 20.6406C35.875 20.9115 35.8958 21.2396 35.9062 21.625H34.0625C34.0625 21.1562 34.0208 20.8125 33.9375 20.5938C33.8646 20.3646 33.7604 20.151 33.625 19.9531C33.4792 19.776 33.2656 19.6406 32.9844 19.5469C32.7135 19.4427 32.4531 19.3906 32.2031 19.3906C31.7969 19.3906 31.4115 19.4792 31.0469 19.6562C30.6927 19.8333 30.3854 20.1094 30.125 20.4844C29.8333 20.8594 29.6094 21.3125 29.4531 21.8438C29.2969 22.375 29.2188 22.9896 29.2188 23.6875C29.2188 24.0833 29.2656 24.5417 29.3594 25.0625C29.4531 25.5729 29.6094 26.0729 29.8281 26.5625C30.0885 27.0417 30.4635 27.4531 30.9531 27.7969C31.4531 28.1302 31.9635 28.2969 32.4844 28.2969C33.0781 28.2969 33.6042 28.1979 34.0625 28C34.5208 27.7917 35.0104 27.4323 35.5312 26.9219ZM37.2812 29.7656V21.2969H39.9531C40.8906 21.2969 41.6198 21.4948 42.1406 21.8906C42.6615 22.2865 42.9219 22.8542 42.9219 23.5938C42.9219 24.0417 42.8177 24.4062 42.6094 24.6875C42.401 24.9688 42.2031 25.1667 42.0156 25.2812C42.0365 25.2917 42.0781 25.3073 42.1406 25.3281C42.2656 25.3906 42.401 25.4688 42.5469 25.5625C42.776 25.7188 42.9427 25.9427 43.0469 26.2344C43.1615 26.526 43.2188 26.8594 43.2188 27.2344C43.2188 27.6406 43.1302 28.0156 42.9531 28.3594C42.7865 28.7031 42.5573 28.9792 42.2656 29.1875C41.974 29.4062 41.625 29.5573 41.2188 29.6406C40.8125 29.724 40.4844 29.7656 40.2344 29.7656H37.2812ZM38.9531 22.8438V24.6094H39.9375C40.3125 24.6094 40.625 24.5417 40.875 24.4062C41.1354 24.2604 41.2656 24.0052 41.2656 23.6406C41.2656 23.3385 41.1406 23.1302 40.8906 23.0156C40.6406 22.901 40.3542 22.8438 40.0312 22.8438H38.9531ZM38.9531 26.1406V28.2188H40.1562C40.5938 28.2188 40.9323 28.1406 41.1719 27.9844C41.4115 27.8281 41.5312 27.5781 41.5312 27.2344C41.5312 26.8281 41.4062 26.5469 41.1562 26.3906C40.9167 26.224 40.599 26.1406 40.2031 26.1406H38.9531ZM48.4844 24.9219V26.5H48.2656C47.5052 26.5 47 26.6094 46.75 26.8281C46.5 27.0469 46.3385 27.4115 46.2656 27.9219L45.9531 29.7656H44.1875L44.6094 27.4844C44.6823 26.9844 44.849 26.5938 45.1094 26.3125C45.3698 26.0208 45.474 25.901 45.4219 25.9531C45.349 25.9115 45.1562 25.6979 44.8438 25.3125C44.5417 24.9271 44.3906 24.4167 44.3906 23.7812C44.3906 23.3021 44.4792 22.8958 44.6562 22.5625C44.8333 22.2188 45.0833 21.9531 45.4062 21.7656C45.7083 21.5781 46.0417 21.4531 46.4062 21.3906C46.7708 21.3281 47.1562 21.2969 47.5625 21.2969H50.2656V29.7656H48.625V22.8438H47.4688C47.3125 22.8438 47.1354 22.8594 46.9375 22.8906C46.75 22.9115 46.6042 22.9531 46.5 23.0156C46.375 23.0677 46.276 23.1562 46.2031 23.2812C46.1302 23.4062 46.0938 23.5729 46.0938 23.7812C46.0938 24.0521 46.1354 24.2604 46.2188 24.4062C46.3021 24.5521 46.3958 24.6615 46.5 24.7344C46.6354 24.7969 46.7917 24.8438 46.9688 24.875C47.1458 24.9062 47.3698 24.9219 47.6406 24.9219H48.4844ZM53.2031 23.6094H51.5C51.5 22.8385 51.7552 22.2292 52.2656 21.7812C52.776 21.3229 53.4844 21.0938 54.3906 21.0938C54.7344 21.0938 55.0781 21.151 55.4219 21.2656C55.7656 21.3698 56.0781 21.5208 56.3594 21.7188C56.6302 21.9062 56.8542 22.1562 57.0312 22.4688C57.2083 22.7812 57.2969 23.1198 57.2969 23.4844C57.2969 23.8177 57.2344 24.1146 57.1094 24.375C56.9948 24.6354 56.849 24.849 56.6719 25.0156C56.5469 25.1094 56.4375 25.1823 56.3438 25.2344C56.25 25.2969 56.2344 25.3125 56.2969 25.2812L56.4219 25.3438C56.5156 25.3958 56.6094 25.4583 56.7031 25.5312C56.9115 25.7083 57.0833 25.9479 57.2188 26.25C57.3542 26.5417 57.4219 26.8958 57.4219 27.3125C57.4219 27.6458 57.3438 27.9844 57.1875 28.3281C57.0417 28.6615 56.8281 28.9479 56.5469 29.1875C56.276 29.4167 55.9531 29.6042 55.5781 29.75C55.2135 29.8854 54.8177 29.9531 54.3906 29.9531C53.5573 29.9531 52.8438 29.7604 52.25 29.375C51.6667 28.9792 51.375 28.3229 51.375 27.4062H53.1719C53.1719 27.7708 53.2708 28.026 53.4688 28.1719C53.6667 28.3177 53.9635 28.3906 54.3594 28.3906C54.7552 28.3906 55.0729 28.2917 55.3125 28.0938C55.5625 27.8854 55.6875 27.599 55.6875 27.2344C55.6875 26.8594 55.5521 26.5729 55.2812 26.375C55.0104 26.1667 54.6458 26.0625 54.1875 26.0625H53.3594V24.5156H54.1875C54.7188 24.5156 55.0885 24.4375 55.2969 24.2812C55.5052 24.1146 55.6094 23.8698 55.6094 23.5469C55.6094 23.2865 55.5 23.0729 55.2812 22.9062C55.0625 22.7396 54.7812 22.6562 54.4375 22.6562C54.0521 22.6562 53.75 22.7135 53.5312 22.8281C53.3125 22.9427 53.2031 23.2031 53.2031 23.6094ZM64.4375 21.2969V29.7656H62.8125V24.5312L60.2812 29.7656H58.5156V21.2969H60.1406V26.4844L62.6562 21.2969H64.4375Z" fill="black"/>
</svg>
